<?xml version="1.0" standalone="no"?>
<!DOCTYPE svg PUBLIC "-//W3C//DTD SVG 1.1//EN" "http://www.w3.org/Graphics/SVG/1.1/DTD/svg11.dtd" >
<svg xmlns="http://www.w3.org/2000/svg">
<metadata></metadata>
<defs>
<font id="existencestencil_light" horiz-adv-x="170" >
<font-face units-per-em="1000" ascent="800" descent="-200" />
<missing-glyph horiz-adv-x="325" />
<glyph unicode="fi" horiz-adv-x="429" d="M21 506v30h45v115q0 95 42.5 149t108.5 54q60 0 101 -46.5t41 -97.5h-30q0 39 -33 76.5t-79 37.5q-52 0 -86.5 -45.5t-34.5 -127.5v-944h-30v799h-45zM126 506v30h128v-30h-128zM329 0v536h30v-536h-30z" />
<glyph unicode="fl" horiz-adv-x="421" d="M21 506v30h45v135q0 92 52.5 148t128.5 56q18 0 48 -4v-30q-19 4 -48 4q-64 0 -107.5 -47.5t-43.5 -126.5v-964h-30v799h-45zM126 506v30h128v-30h-128zM325 0v875h30v-875h-30z" />
<glyph unicode="fb" horiz-adv-x="791" d="M21 506v30h45v135q0 92 52.5 148t128.5 56q65 0 108 -24v-853q-5 0 -15 0.5t-15 1.5v832q-34 13 -78 13q-64 0 -107.5 -47.5t-43.5 -126.5v-964h-30v799h-45zM126 506v30h128v-30h-128zM385 -3v30h17q146 0 227.5 71.5t81.5 170.5t-81.5 171t-228.5 72h-16v30h16 q161 0 250.5 -80.5t89.5 -192.5q0 -111 -89.5 -191.5t-249.5 -80.5h-17z" />
<glyph unicode="fh" horiz-adv-x="802" d="M21 506v30h45v135q0 92 52.5 148t128.5 56q65 0 108 -24v-851h-30v832q-34 13 -78 13q-64 0 -107.5 -47.5t-43.5 -126.5v-964h-30v799h-45zM126 506v30h128v-30h-128zM385 477v34q65 35 137 35q70 0 126.5 -34t80.5 -100q13 -33 13 -70v-342h-30v340q0 82 -57.5 129 t-133.5 47q-74 0 -136 -39z" />
<glyph unicode="fj" horiz-adv-x="429" d="M21 506v30h45v115q0 95 43 149t109 54q60 0 101.5 -46.5t41.5 -97.5h-30q0 39 -33.5 76.5t-79.5 37.5q-52 0 -87 -45.5t-35 -127.5v-800h-30v655h-45zM92 -226l26 14q10 -20 38 -35.5t53 -15.5q52 0 87 45.5t35 127.5v626h30v-626q0 -95 -43 -149t-109 -54 q-33 0 -68.5 20t-48.5 47zM126 506v30h128v-30h-128z" />
<glyph unicode="fk" horiz-adv-x="829" d="M21 506v30h45v135q0 92 52.5 148t128.5 56q65 0 108 -24v-851h-30v832q-34 13 -78 13q-64 0 -107.5 -47.5t-43.5 -126.5v-964h-30v799h-45zM126 506v30h128v-30h-128zM385 232v38l376 277l18 -24l-334 -247l334 -263l-18 -24l-341 269z" />
<glyph unicode=" "  horiz-adv-x="325" />
<glyph unicode="&#x09;" horiz-adv-x="325" />
<glyph unicode="&#xa0;" horiz-adv-x="325" />
<glyph unicode="!" horiz-adv-x="184" d="M62 0v60h60v-60h-60zM77 164v536h30v-536h-30z" />
<glyph unicode="&#x22;" horiz-adv-x="244" d="M62 560v140h30v-140h-30zM152 560v140h30v-140h-30z" />
<glyph unicode="#" horiz-adv-x="535" d="M28 190l5 30h307l32 215h30l-32 -215h106l-5 -30h-105l-29 -190h-30l28 190h-172l-29 -190h-30l28 190h-104zM69 465l5 30h104l31 205h31l-31 -205h172l31 205h31l-31 -205h105l-5 -30h-308l-33 -215h-30l33 215h-105z" />
<glyph unicode="$" horiz-adv-x="506" d="M50 520q0 79 53 133t135 61v91h30v-90q62 -2 111 -32.5t73 -86.5l-28 -12q-43 96 -156 101v-293l-30 11v281q-69 -7 -113.5 -52.5t-44.5 -111.5q0 -30 15.5 -55.5t44.5 -44.5t55.5 -31.5t62.5 -24.5q40 -14 70 -28t61.5 -36t49 -52.5t17.5 -67.5q0 -79 -53.5 -133 t-134.5 -61v-91h-30v90q-63 2 -112 32.5t-72 86.5l28 12q20 -47 61.5 -73t94.5 -28v293l30 -11v-281q69 6 113.5 52t44.5 112q0 30 -15.5 55.5t-44.5 44.5t-55.5 31.5t-62.5 24.5q-40 14 -70 28t-61.5 36t-49 52.5t-17.5 67.5z" />
<glyph unicode="%" horiz-adv-x="507" d="M60 7l361 700l26 -14l-361 -700zM60 623q0 30 19 52.5t48 27.5v-30q-37 -12 -37 -50q0 -18 10 -31.5t27 -18.5v-31q-29 5 -48 28t-19 53zM157 542v31q16 5 26.5 18.5t10.5 31.5t-10.5 31.5t-26.5 18.5v30q29 -5 48 -27.5t19 -52.5t-19 -53t-48 -28zM283 76q0 30 19 52.5 t48 27.5v-30q-37 -12 -37 -50q0 -18 10 -31.5t27 -18.5v-30q-29 5 -48 27.5t-19 52.5zM380 -4v30q16 5 26.5 18.5t10.5 31.5t-10.5 31.5t-26.5 18.5v30q29 -5 48 -27.5t19 -52.5t-19 -52.5t-48 -27.5z" />
<glyph unicode="&#x26;" horiz-adv-x="487" d="M55 194q0 63 43 113t115 72q-50 20 -77.5 60t-27.5 93q0 79 57 126t143 47q13 0 35 -2l-2 -30q-22 2 -33 2q-73 0 -121.5 -38.5t-48.5 -104.5q0 -57 40 -95.5t108 -44.5v-30q-89 -6 -145 -54t-56 -114q0 -76 70 -121t177 -45h2v-30h-2q-120 0 -198.5 53.5t-78.5 142.5z M316 362v30h48v47h30v-47h48v-30h-48v-361q-20 -2 -30 -2v363h-48z" />
<glyph unicode="'" horiz-adv-x="130" d="M50 560v140h30v-140h-30z" />
<glyph unicode="(" horiz-adv-x="263" d="M55 350q0 125 47 244t139 216l22 -20q-88 -93 -133 -207t-45 -233q0 -120 45 -233.5t133 -206.5l-22 -20q-92 97 -139 216t-47 244z" />
<glyph unicode=")" horiz-adv-x="263" d="M0 -90q88 93 133 206.5t45 233.5q0 119 -45 233t-133 207l22 20q92 -97 139 -216t47 -244t-47 -244t-139 -216z" />
<glyph unicode="*" horiz-adv-x="394" d="M50 556l10 28l122 -40v130h30v-130l124 40l8 -28l-124 -40l77 -104l-24 -18l-77 104l-75 -103l-24 18l75 103z" />
<glyph unicode="+" horiz-adv-x="460" d="M50 294v30h165v165h30v-165h165v-30h-165v-165h-30v165h-165z" />
<glyph unicode="," horiz-adv-x="184" d="M62 0v60h60v-85q0 -71 -47 -88l-10 28q27 9 27 60v25h-30z" />
<glyph unicode="-" horiz-adv-x="360" d="M50 294v30h260v-30h-260z" />
<glyph unicode="." horiz-adv-x="184" d="M62 0v60h60v-60h-60z" />
<glyph unicode="/" horiz-adv-x="455" d="M20 -34l387 829l28 -12l-387 -829z" />
<glyph unicode="0" horiz-adv-x="536" d="M60 350q0 91 20.5 169.5t65.5 133.5t107 61v-30q-77 -10 -120 -107.5t-43 -226.5q0 -130 43 -227.5t120 -106.5v-30q-62 6 -107 60.5t-65.5 133.5t-20.5 170zM283 -14v30q52 6 90 56.5t55.5 122.5t17.5 155t-17.5 154.5t-55.5 122t-90 57.5v30q61 -6 106 -61t66 -134 t21 -169q0 -91 -21 -169.5t-66 -133.5t-106 -61z" />
<glyph unicode="1" horiz-adv-x="526" d="M98 453l162 203v-48l-138 -173zM290 0v694l30 38v-732h-30z" />
<glyph unicode="2" horiz-adv-x="526" d="M36 0l26 30h412v-30h-438zM53 597q59 118 193 118q83 0 146 -50.5t63 -137.5q0 -41 -19 -84.5t-38.5 -69t-55.5 -66.5l-216 -247h-38l235 271q31 36 48.5 58.5t35.5 60.5t18 72q0 76 -54.5 119.5t-124.5 43.5q-115 0 -166 -100z" />
<glyph unicode="3" horiz-adv-x="526" d="M56 -1l5 30q30 -5 68 -5q126 0 212.5 52t86.5 135q0 51 -39.5 95t-103.5 66q-67 23 -175 23l174 245h37l-154 -217q72 -3 128 -22q68 -23 115.5 -75.5t47.5 -114.5q0 -72 -53 -123t-125 -72.5t-151 -21.5q-43 0 -73 5zM81 670v30h282l-21 -30h-261z" />
<glyph unicode="4" horiz-adv-x="526" d="M43 129l288 503v-61l-236 -412h236v-30h-288zM361 0v684l30 53v-578h84v-30h-84v-129h-30z" />
<glyph unicode="5" horiz-adv-x="526" d="M55 -1l5 30q30 -5 68 -5q126 0 212.5 52t86.5 135q0 51 -39.5 95t-103.5 66q-66 22 -133 22q-24 0 -61 -2v248h30v-217q18 1 31 1q72 0 143 -23q68 -23 115.5 -75.5t47.5 -114.5q0 -72 -53 -123t-125 -72.5t-151 -21.5q-43 0 -73 5zM90 670v30h273v-30h-273z" />
<glyph unicode="6" horiz-adv-x="526" d="M60 193v216q0 46 7 86.5t25.5 79.5t47 67t74 45t103.5 17q17 0 45 -2v-30q-28 2 -44 2q-228 0 -228 -265v-109q25 43 68 69.5t94 30.5v-30q-68 -6 -115 -57t-47 -120q0 -70 47 -121t115 -57v-29q-81 6 -136.5 65.5t-55.5 141.5zM282 -14v29q69 5 116.5 56.5t47.5 121.5 q0 69 -47.5 120.5t-116.5 56.5v30q81 -5 137.5 -65t56.5 -142q0 -83 -56.5 -142.5t-137.5 -64.5z" />
<glyph unicode="7" horiz-adv-x="526" d="M60 670v30h409l-10 -30h-399zM203 2l214 638h32l-217 -645z" />
<glyph unicode="8" horiz-adv-x="526" d="M55 193q0 65 37 118t96 76q-44 21 -70.5 63t-26.5 92q0 67 45.5 116.5t111.5 54.5v-30q-54 -6 -90.5 -46.5t-36.5 -94.5q0 -55 37 -95.5t90 -45.5v-31q-68 -5 -115.5 -56t-47.5 -121q0 -69 47 -120.5t116 -57.5v-30q-81 5 -137 65.5t-56 142.5zM278 -15v30q69 6 116 57.5 t47 120.5q0 70 -47.5 121t-115.5 56v31q53 5 90 45.5t37 95.5q0 54 -36.5 94.5t-90.5 46.5v30q66 -5 111.5 -54.5t45.5 -116.5q0 -50 -26.5 -92t-70.5 -63q59 -23 96 -76t37 -118q0 -82 -56 -142.5t-137 -65.5z" />
<glyph unicode="9" horiz-adv-x="526" d="M50 507q0 83 56.5 143t137.5 65v-30q-69 -5 -116.5 -56.5t-47.5 -121.5q0 -69 47.5 -120.5t116.5 -56.5v-30q-81 5 -137.5 65t-56.5 142zM164 -2v30q28 -2 44 -2q228 0 228 265v109q-25 -43 -68 -69.5t-94 -30.5v30q68 6 115 57t47 120q0 70 -47 121t-115 57v30 q81 -6 136.5 -66t55.5 -142v-216q0 -46 -7 -86.5t-25.5 -79.5t-47 -67t-74 -45t-103.5 -17q-17 0 -45 2z" />
<glyph unicode=":" horiz-adv-x="184" d="M62 0v60h60v-60h-60zM62 476v60h60v-60h-60z" />
<glyph unicode=";" horiz-adv-x="184" d="M62 0v60h60v-85q0 -71 -47 -88l-10 28q27 9 27 60v25h-30zM62 476v60h60v-60h-60z" />
<glyph unicode="&#x3c;" horiz-adv-x="550" d="M50 288l440 170l10 -28l-367 -142l367 -142l-10 -28z" />
<glyph unicode="=" horiz-adv-x="460" d="M50 247v30h360v-30h-360zM50 341v30h360v-30h-360z" />
<glyph unicode="&#x3e;" horiz-adv-x="550" d="M50 146l367 142l-367 142l10 28l440 -170l-440 -170z" />
<glyph unicode="?" horiz-adv-x="502" d="M51 599q59 116 191 116q83 0 146.5 -50t63.5 -137q0 -63 -30 -101.5t-88 -70.5q-41 -23 -61 -48t-20 -63v-81h-30v81q0 84 97 137q49 27 75.5 61t26.5 85q0 73 -54.5 115t-125.5 42q-116 0 -165 -100zM208 0v60h60v-60h-60z" />
<glyph unicode="@" horiz-adv-x="840" d="M55 350q0 151 107 258t258 107t258 -107t107 -258q0 -75 -43 -132.5t-119 -57.5q-31 0 -63 23t-32 55v171q0 52 -28.5 85.5t-72.5 33.5q-66 0 -112 -46l-22 22q54 54 134 54q57 0 94 -40.5t37 -108.5v-171q0 -16 20 -32t45 -16q62 0 97 48.5t35 111.5q0 139 -98 237 t-237 98t-237 -98t-98 -237t98 -237t237 -98q74 0 155 38l12 -28q-82 -40 -167 -40q-151 0 -258 107t-107 258zM255 303q0 66 47 106t107 40q48 0 89 -22v-36q-41 28 -89 28t-86 -32t-38 -84t38 -84.5t86 -32.5q52 0 89 24v-35q-39 -19 -89 -19q-59 0 -106.5 40t-47.5 107z " />
<glyph unicode="A" horiz-adv-x="634" d="M49 5l236 626l16 -42l-224 -594zM182 189l11 30h279l-171 455l16 43l268 -712l-28 -10l-73 194h-302z" />
<glyph unicode="B" horiz-adv-x="526" d="M70 2v698q10 0 30 2v-702q-12 0 -30 2zM130 -1v30h17q140 0 219.5 43.5t79.5 119.5q0 77 -80 120.5t-220 43.5h-16v30h27q114 0 171.5 40t57.5 104q0 65 -60 104t-179 39h-17v30h17q134 0 201.5 -47.5t67.5 -125.5q0 -54 -34 -95.5t-101 -61.5q93 -19 144 -66.5 t51 -114.5q0 -89 -87.5 -141t-241.5 -52h-17z" />
<glyph unicode="C" horiz-adv-x="518" d="M55 350q0 68 21.5 130.5t62.5 113t107.5 80.5t148.5 30q40 0 73 -3l-2 -30q-33 3 -71 3q-75 0 -135.5 -27.5t-97.5 -74t-57 -103.5t-20 -119t20 -119t57 -103t97 -73.5t135 -27.5q39 0 72 3l2 -30q-33 -3 -74 -3q-82 0 -148 30t-107 80.5t-62.5 112.5t-21.5 130z" />
<glyph unicode="D" horiz-adv-x="551" d="M70 0v700q4 0 14 1t16 1v-704q-6 0 -16 1t-14 1zM130 -3v30h27q75 0 135 27.5t97 73.5t57 103t20 119t-20 119t-57 103.5t-97.5 74t-134.5 27.5q-17 0 -27 -1v30q10 1 27 1q108 0 187 -52t115.5 -131t36.5 -171q0 -68 -21.5 -130t-62.5 -112.5t-107 -80.5t-148 -30h-27z " />
<glyph unicode="E" horiz-adv-x="521" d="M70 0v700h30v-700h-30zM130 0v30h336v-30h-336zM130 376v30h270v-30h-270zM130 670v30h336v-30h-336z" />
<glyph unicode="F" horiz-adv-x="521" d="M70 0v700h30v-700h-30zM130 376v30h270v-30h-270zM130 670v30h336v-30h-336z" />
<glyph unicode="G" horiz-adv-x="547" d="M55 350q0 92 36.5 171t115.5 131t187 52q35 0 87 -4v-31q-42 5 -87 5q-74 0 -134.5 -27.5t-97.5 -74t-57 -103.5t-20 -119t20 -119t57 -103t97 -73.5t135 -27.5h27v-30h-27q-82 0 -148 30t-107 80.5t-62.5 112.5t-21.5 130zM451 -2v310h30v-308q-10 0 -30 -2z" />
<glyph unicode="H" horiz-adv-x="546" d="M70 0v700h30v-700h-30zM130 376v30h316v294h30v-700h-30v376h-316z" />
<glyph unicode="I" d="M70 0v700h30v-700h-30z" />
<glyph unicode="J" horiz-adv-x="459" d="M45 58l21 23q66 -61 127 -61q60 0 102.5 38.5t57.5 95.5q10 36 10 78v468h30v-477q0 -99 -56.5 -166t-143.5 -67q-80 0 -148 68z" />
<glyph unicode="K" horiz-adv-x="576" d="M70 0v700h30v-700h-30zM130 321v41l375 349l20 -22zM178 325l22 20l326 -335l-22 -20z" />
<glyph unicode="L" horiz-adv-x="493" d="M70 0v700h30v-700h-30zM130 0v30h308v-30h-308z" />
<glyph unicode="M" horiz-adv-x="656" d="M70 0v597l30 -56v-541h-30zM70 661v63l258 -483l198 370v-63l-198 -371zM556 0v667l30 57v-724h-30z" />
<glyph unicode="N" horiz-adv-x="557" d="M70 0v611l30 -51v-560h-30zM70 670v59l417 -698v-60zM457 141v559h30v-609z" />
<glyph unicode="O" horiz-adv-x="818" d="M50 350q0 144 100 248t244 110v-30q-132 -6 -223 -101t-91 -227t91 -227.5t223 -101.5v-30q-144 6 -244 110.5t-100 248.5zM424 -9v30q132 6 223 101.5t91 227.5t-91 227t-223 101v30q144 -6 244 -110t100 -248t-100 -248.5t-244 -110.5z" />
<glyph unicode="P" horiz-adv-x="536" d="M70 0v700q18 2 30 2v-702h-30zM130 236v30h17q146 0 227.5 60t81.5 143t-81.5 143.5t-227.5 60.5h-17v30h17q160 0 249.5 -69.5t89.5 -164.5t-89.5 -164t-249.5 -69h-17z" />
<glyph unicode="Q" horiz-adv-x="818" d="M50 350q0 144 100 248t244 110v-30q-132 -6 -223 -101t-91 -227t91 -227.5t223 -101.5v-30q-144 6 -244 110.5t-100 248.5zM424 -9v30q117 4 206 85l-94 95l22 22l94 -95q86 96 86 222q0 132 -91 227t-223 101v30q144 -6 244 -110t100 -248q0 -140 -95 -243l95 -94 l-22 -22l-95 94q-99 -90 -227 -94z" />
<glyph unicode="R" horiz-adv-x="546" d="M70 0v700q10 0 30 2v-702h-30zM130 236v30h17q146 0 227.5 60t81.5 143t-81.5 143.5t-227.5 60.5h-17v30h17q160 0 249.5 -69.5t89.5 -164.5q0 -66 -45.5 -123t-130.5 -86l191 -251l-24 -18l-198 260q-57 -15 -132 -15h-17z" />
<glyph unicode="S" horiz-adv-x="516" d="M55 520q0 80 55 133t138 58v-30q-71 -5 -117 -49.5t-46 -111.5q0 -30 15.5 -55.5t44.5 -44.5t55.5 -31.5t62.5 -24.5q40 -14 70 -28t61.5 -36t49 -52.5t17.5 -67.5q0 -80 -55 -133.5t-138 -58.5v30q71 5 117 50t46 112q0 30 -15.5 55.5t-44.5 44.5t-55.5 31.5t-62.5 24.5 q-40 14 -70 28t-61.5 36t-49 52.5t-17.5 67.5zM59 106l28 12q41 -93 151 -100v-30q-132 7 -179 118zM278 681v30q61 -3 108.5 -32.5t70.5 -84.5l-28 -12q-41 92 -151 99z" />
<glyph unicode="T" horiz-adv-x="566" d="M50 670v30h466v-30h-466zM268 0v640h30v-640h-30z" />
<glyph unicode="U" horiz-adv-x="558" d="M66 193v507h30v-507q0 -72 48.5 -120t119.5 -53v-30q-83 5 -140.5 61.5t-57.5 141.5zM294 -10v30q70 5 119 53t49 120v507h30v-507q0 -85 -57.5 -141.5t-140.5 -61.5z" />
<glyph unicode="V" horiz-adv-x="634" d="M49 695l28 9l256 -689l-16 -43zM333 101l224 603l28 -9l-236 -637z" />
<glyph unicode="W" horiz-adv-x="773" d="M50 696l28 8l199 -681l-15 -53zM277 126l79 270l15 -52l-79 -269zM299 696l28 8l59 -204l60 204l28 -8l-73 -248l125 -425l-15 -53zM526 126l169 578l28 -8l-182 -621z" />
<glyph unicode="X" horiz-adv-x="558" d="M50 8l432 700l26 -16l-432 -700zM50 692l26 16l185 -300l-18 -29zM297 292l18 29l193 -313l-26 -16z" />
<glyph unicode="Y" horiz-adv-x="558" d="M50 692l26 16l218 -353v-355h-30v345zM297 408l185 300l26 -16l-193 -313z" />
<glyph unicode="Z" horiz-adv-x="550" d="M55 0l406 700h34l-406 -700h-34zM58 670v30h368l-18 -30h-350zM124 0l18 30h350v-30h-368z" />
<glyph unicode="[" horiz-adv-x="240" d="M70 -110v920h170v-30h-140v-860h140v-30h-170z" />
<glyph unicode="\" horiz-adv-x="455" d="M20 783l28 12l387 -829l-28 -12z" />
<glyph unicode="]" horiz-adv-x="240" d="M0 -80h140v860h-140v30h170v-920h-170v30z" />
<glyph unicode="^" horiz-adv-x="325" d="M50 555l113 145l112 -145l-24 -18l-88 113l-89 -113z" />
<glyph unicode="_" horiz-adv-x="511" d="M0 0v30h511v-30h-511z" />
<glyph unicode="`" horiz-adv-x="289" d="M60 717l18 24l151 -109l-18 -24z" />
<glyph unicode="a" horiz-adv-x="532" d="M55 187q0 87 62 141t150 54q80 0 145 -45v-36q-60 51 -145 51q-76 0 -129 -45.5t-53 -119.5t53.5 -120.5t128.5 -46.5q85 0 145 46v-37q-60 -39 -145 -39q-87 0 -149.5 55t-62.5 142zM108 472q77 74 184 74q31 0 61 -10.5t57.5 -33t44.5 -64t17 -97.5v-341h-30v341 q0 91 -45.5 133t-104.5 42q-96 0 -162 -64z" />
<glyph unicode="b" horiz-adv-x="532" d="M66 0v893h30v-895q-12 0 -30 2zM126 -3v30h17q146 0 227.5 72t81.5 171t-81.5 171.5t-228.5 72.5h-16v30h16q161 0 250.5 -81t89.5 -193q0 -111 -89.5 -192t-249.5 -81h-17z" />
<glyph unicode="c" horiz-adv-x="503" d="M50 268q0 112 89.5 194t249.5 82q31 0 64 -3l-2 -30q-33 3 -62 3q-146 0 -227.5 -73.5t-81.5 -172.5t81.5 -172t227.5 -73q29 0 62 3l2 -30q-33 -3 -64 -3q-160 0 -249.5 81.5t-89.5 193.5z" />
<glyph unicode="d" horiz-adv-x="532" d="M50 270q0 112 89.5 193t250.5 81h16v-30h-16q-147 0 -228.5 -72.5t-81.5 -171.5t81.5 -171t227.5 -72h17v-30h-17q-160 0 -249.5 81t-89.5 192zM436 -2v895h30v-893q-20 -2 -30 -2z" />
<glyph unicode="e" horiz-adv-x="562" d="M50 270q0 74 24 130.5t61.5 86.5t76.5 44.5t76 14.5q104 0 164 -71t60 -181h-401q0 15 3 30h366q0 71 -52 131.5t-140 60.5q-34 0 -68.5 -14t-67 -41.5t-52.5 -77t-20 -113.5q0 -98 81.5 -171t229.5 -73q19 0 61 4v-30q-44 -4 -64 -4q-158 0 -248 81t-90 193z" />
<glyph unicode="f" horiz-adv-x="259" d="M21 506v30h45v115q0 92 52.5 147.5t128.5 55.5q48 0 80.5 -15t68.5 -48l-20 -22q-33 30 -60.5 42.5t-68.5 12.5q-64 0 -107.5 -47t-43.5 -126v-944h-30v799h-45zM126 506v30h128v-30h-128z" />
<glyph unicode="g" horiz-adv-x="532" d="M50 270q0 111 89.5 192t249.5 81h17v-30h-17q-146 0 -227.5 -72t-81.5 -171t81.5 -171.5t228.5 -72.5h16v-30h-16q-161 0 -250.5 81t-89.5 193zM119 -225l20 22q62 -60 128 -60q74 0 121.5 60.5t47.5 142.5v602q20 -2 30 -2v-600q0 -94 -55.5 -163.5t-143.5 -69.5 q-78 0 -148 68z" />
<glyph unicode="h" horiz-adv-x="543" d="M66 0v893h30v-893h-30zM126 477v34q65 35 137 35q70 0 126.5 -34t80.5 -100q13 -33 13 -70v-342h-30v340q0 82 -57.5 129t-133.5 47q-74 0 -136 -39z" />
<glyph unicode="i" d="M60 650v50h50v-50h-50zM70 0v536h30v-536h-30z" />
<glyph unicode="j" d="M-122 -232l26 14q26 -45 72 -45q40 0 67 34.5t27 94.5v670h30v-670q0 -73 -35.5 -116t-88.5 -43q-64 0 -98 61zM60 651v49h50v-49h-50z" />
<glyph unicode="k" horiz-adv-x="570" d="M66 0v893h30v-893h-30zM126 232v38l376 277l18 -24zM186 238l25 19l309 -244l-18 -24z" />
<glyph unicode="l" horiz-adv-x="162" d="M66 0v893h30v-893h-30z" />
<glyph unicode="m" horiz-adv-x="832" d="M66 0v536h30v-536h-30zM126 478v35q55 33 123 33q79 0 132 -56.5t53 -145.5v-344h-30v344q0 64 -40 118t-115 54q-67 0 -123 -38zM436 464q50 82 151 82q80 0 132.5 -55.5t52.5 -149.5v-341h-30v341q0 14 -3 33t-13.5 45t-26.5 47t-45.5 35.5t-66.5 14.5q-94 0 -135 -89 q-5 15 -16 37z" />
<glyph unicode="n" horiz-adv-x="544" d="M66 0v536h30v-536h-30zM126 477v34q64 35 139 35q70 0 126.5 -35t80.5 -99q12 -32 12 -70v-342h-30v342q0 80 -57.5 127t-131.5 47q-77 0 -139 -39z" />
<glyph unicode="o" horiz-adv-x="656" d="M50 268q0 111 76.5 191t186.5 86v-30q-98 -6 -165.5 -77t-67.5 -170t67.5 -170.5t165.5 -77.5v-29q-110 6 -186.5 86t-76.5 191zM343 -9v29q98 6 165.5 77.5t67.5 170.5t-67.5 170t-165.5 77v30q110 -6 186.5 -86t76.5 -191t-76.5 -191t-186.5 -86z" />
<glyph unicode="p" horiz-adv-x="532" d="M66 -293v833q10 0 30 2v-835h-30zM126 -4v30h16q147 0 228.5 72.5t81.5 171.5t-81.5 171t-227.5 72h-17v30h17q160 0 249.5 -81t89.5 -192q0 -112 -89.5 -193t-250.5 -81h-16z" />
<glyph unicode="q" horiz-adv-x="532" d="M50 270q0 111 89.5 192t249.5 81h17v-30h-17q-146 0 -227.5 -72t-81.5 -171t81.5 -171.5t228.5 -72.5h16v-30h-16q-161 0 -250.5 81t-89.5 193zM436 -293v835q20 -2 30 -2v-833h-30z" />
<glyph unicode="r" horiz-adv-x="300" d="M66 0v536h30v-536h-30zM126 477v34q64 35 139 35v-30q-77 0 -139 -39z" />
<glyph unicode="s" horiz-adv-x="464" d="M50 388q0 66 62 110.5t163 44.5q59 0 110 -21l-12 -28q-49 19 -98 19q-88 0 -141.5 -35.5t-53.5 -89.5q0 -79 154 -105q86 -14 133 -49t47 -86q0 -66 -62 -110.5t-163 -44.5q-59 0 -110 21l12 28q49 -19 98 -19q88 0 141.5 35.5t53.5 89.5q0 79 -154 105q-86 14 -133 49 t-47 86z" />
<glyph unicode="t" horiz-adv-x="296" d="M21 506v30h45v174h30v-522q0 -78 42.5 -118.5t110.5 -40.5q14 0 23 1l4 -30q-9 -1 -27 -1q-81 0 -132 48t-51 141v318h-45zM126 506v30h128v-30h-128z" />
<glyph unicode="u" horiz-adv-x="538" d="M60 193v343h30v-343q0 -72 47 -120t117 -53v-30q-82 5 -138 61.5t-56 141.5zM284 -10v30q70 5 117 53t47 120v343h30v-343q0 -85 -56 -141.5t-138 -61.5z" />
<glyph unicode="v" horiz-adv-x="526" d="M50 531l28 10l201 -520l-16 -41zM279 103l169 438l28 -10l-181 -469z" />
<glyph unicode="w" horiz-adv-x="778" d="M50 531l28 10l201 -520l-16 -41zM279 103l78 202l16 -41l-78 -202zM302 531l28 10l59 -153l59 153l28 -10l-71 -184l126 -326l-16 -41zM531 103l169 438l28 -10l-181 -469z" />
<glyph unicode="x" horiz-adv-x="554" d="M50 9l430 536l24 -18l-430 -536zM50 527l24 18l184 -229l-19 -24zM296 220l19 24l189 -235l-24 -18z" />
<glyph unicode="y" horiz-adv-x="542" d="M60 186v350h30v-352q0 -78 56 -126t131 -48t139 52v-39q-64 -43 -138 -43q-82 0 -150 55.5t-68 150.5zM129 -225l20 22q62 -60 128 -60q74 0 121.5 60.5t47.5 142.5v596h30v-596q0 -94 -55.5 -163.5t-143.5 -69.5q-78 0 -148 68z" />
<glyph unicode="z" horiz-adv-x="534" d="M46 0l403 536h39l-403 -536h-39zM50 506v30h361l-23 -30h-338zM123 0l23 30h338v-30h-361z" />
<glyph unicode="{" horiz-adv-x="250" d="M47 338v24q27 6 55 29.5t28 50.5q0 36 -15 119t-15 124q0 50 39.5 87.5t110.5 37.5v-30q-57 0 -88.5 -28.5t-31.5 -66.5q0 -32 15 -116t15 -127q0 -56 -64 -92q64 -36 64 -92q0 -44 -15 -128t-15 -115q0 -38 31.5 -66.5t88.5 -28.5v-30q-71 0 -110.5 37.5t-39.5 87.5 q0 41 15 124t15 119q0 27 -28 50.5t-55 29.5z" />
<glyph unicode="|" horiz-adv-x="184" d="M77 -120v1013h30v-1013h-30z" />
<glyph unicode="}" horiz-adv-x="250" d="M0 -80q57 0 88.5 28.5t31.5 66.5q0 31 -15 115t-15 128q0 56 64 92q-64 36 -64 92q0 43 15 127t15 116q0 38 -31.5 66.5t-88.5 28.5v30q71 0 110.5 -37.5t39.5 -87.5q0 -41 -15 -124t-15 -119q0 -27 28 -50.5t55 -29.5v-24q-27 -6 -55 -29.5t-28 -50.5q0 -36 15 -119 t15 -124q0 -50 -39.5 -87.5t-110.5 -37.5v30z" />
<glyph unicode="~" horiz-adv-x="511" d="M50 301q48 61 111 61q49 0 103 -40q44 -35 87 -35q47 0 86 49l24 -18q-48 -61 -110 -61q-50 0 -105 41q-47 34 -85 34q-48 0 -87 -49z" />
<glyph unicode="&#xa1;" horiz-adv-x="184" d="M62 476v60h60v-60h-60zM77 -164v536h30v-536h-30z" />
<glyph unicode="&#xa2;" horiz-adv-x="512" d="M50 268q0 92 62 167t176 99v92h30v-87q37 5 71 5q31 0 64 -3l-2 -30q-33 3 -62 3q-146 0 -227.5 -73.5t-81.5 -172.5t81.5 -172t227.5 -73q29 0 62 3l2 -30q-33 -3 -64 -3q-34 0 -71 5v-90h-30v95q-114 24 -176 98.5t-62 166.5z" />
<glyph unicode="&#xa3;" horiz-adv-x="493" d="M20 345v30h200v-30h-200zM33 30q30 7 60 50t30 92q0 41 -25 143h32q23 -92 23 -143q0 -24 -9.5 -54.5t-24.5 -51.5q11 5 29 5q52 0 105 -25q52 -23 93 -23q57 0 92 34l20 -22q-45 -42 -112 -42q-47 0 -105 25q-53 23 -93 23q-15 0 -35.5 -9t-41 -19.5t-33.5 -12.5z M73 476q0 100 69.5 162t201.5 62v-30q-117 0 -179 -54t-62 -140q0 -36 6 -71h-30q-6 35 -6 71z" />
<glyph unicode="&#xa5;" horiz-adv-x="558" d="M50 692l26 16l203 -329l203 329l26 -16l-214 -347v-25h-30v25zM119 172v30h320v-30h-320zM119 260v30h320v-30h-320zM264 0v142h30v-142h-30z" />
<glyph unicode="&#xa6;" horiz-adv-x="230" d="M100 -120v440h30v-440h-30zM100 453v440h30v-440h-30z" />
<glyph unicode="&#xa7;" horiz-adv-x="513" d="M60 319q0 66 73 111l37 -13q-37 -15 -58.5 -41.5t-21.5 -56.5q0 -48 41.5 -86t107.5 -47q9 -1 27.5 -3.5t27.5 -4t23 -5t26 -8.5q82 -31 82 -104q0 -61 -58 -104t-157 -43q-39 0 -79 8l4 30q40 -8 75 -8q85 0 135 34.5t50 82.5q0 34 -33.5 58.5t-87.5 31.5l-41 5 q-80 10 -126.5 58.5t-46.5 104.5zM88 553q0 61 58 104t157 43q39 0 79 -8l-4 -30q-40 8 -75 8q-85 0 -135 -34.5t-50 -82.5q0 -73 120 -90l39 -5q81 -11 128.5 -59.5t47.5 -104.5q0 -68 -72 -111l-36 13q36 14 57 41t21 57q0 47 -41.5 85.5t-105.5 47.5l-38 5q-39 5 -68 16 q-82 31 -82 105z" />
<glyph unicode="&#xa8;" horiz-adv-x="325" d="M70 650v50h50v-50h-50zM205 650v50h50v-50h-50z" />
<glyph unicode="&#xa9;" horiz-adv-x="840" d="M55 350q0 147 102 252.5t248 111.5v-30q-134 -6 -227 -102.5t-93 -231.5t93 -232t227 -103v-29q-146 6 -248 111.5t-102 252.5zM241 350q0 81 64 139.5t180 58.5q31 0 46 -2l-4 -30q-15 2 -42 2q-101 0 -157.5 -50t-56.5 -118t56 -117.5t157 -49.5q27 0 43 2l4 -30 q-16 -2 -47 -2q-115 0 -179 58.5t-64 138.5zM435 -14v29q134 6 227 103t93 232t-93 231.5t-227 102.5v30q146 -6 248 -111.5t102 -252.5t-102 -252.5t-248 -111.5z" />
<glyph unicode="&#xab;" horiz-adv-x="417" d="M50 270l169 132l18 -24l-137 -108l137 -107l-18 -24zM180 270l169 132l18 -24l-137 -108l137 -107l-18 -24z" />
<glyph unicode="&#xad;" horiz-adv-x="360" d="M50 294v30h260v-30h-260z" />
<glyph unicode="&#xae;" horiz-adv-x="500" d="M60 525q0 75 50.5 129.5t124.5 59.5v-30q-62 -5 -103.5 -50.5t-41.5 -108.5t41.5 -108.5t103.5 -51.5v-30q-74 6 -124.5 60.5t-50.5 129.5zM193 435v141h30v-48q30 0 47 11.5t17 26.5q0 16 -17 28t-47 12h-30v30h29q45 0 70 -20.5t25 -49.5q0 -41 -43 -59l48 -63l-24 -18 l-56 73q-6 -1 -19 -1v-63h-30zM265 335v30q61 6 103 51.5t42 108.5t-42 108.5t-103 50.5v30q74 -5 124.5 -59.5t50.5 -129.5t-50.5 -129.5t-124.5 -60.5z" />
<glyph unicode="&#xaf;" horiz-adv-x="400" d="M70 660v30h260v-30h-260z" />
<glyph unicode="&#xb0;" horiz-adv-x="274" d="M55 536q0 30 19 52.5t48 27.5v-30q-37 -12 -37 -50q0 -18 10 -31.5t27 -18.5v-31q-29 5 -48 28t-19 53zM152 455v31q16 5 26.5 18.5t10.5 31.5t-10.5 31.5t-26.5 18.5v30q29 -5 48 -27.5t19 -52.5t-19 -53t-48 -28z" />
<glyph unicode="&#xb1;" horiz-adv-x="480" d="M60 100v30h360v-30h-360zM60 324v30h165v164h30v-164h165v-30h-165v-164h-30v164h-165z" />
<glyph unicode="&#xb2;" horiz-adv-x="318" d="M50 481l26 30h187v-30h-213zM69 759q29 56 93 56q40 0 70.5 -25t30.5 -68q0 -42 -52 -101l-70 -80h-39l87 100q44 50 44 81q0 29 -21.5 46t-49.5 17q-48 0 -67 -40z" />
<glyph unicode="&#xb3;" horiz-adv-x="291" d="M52 482l6 30q11 -2 29 -2q50 0 87 20t37 55q0 20 -17 37.5t-41 26.5q-23 7 -90 11l64 91h37l-45 -64q28 -4 44 -10q34 -12 56 -37t22 -55q0 -49 -46 -77t-108 -28q-24 0 -35 2zM60 781v30h147l-22 -30h-125z" />
<glyph unicode="&#xb4;" horiz-adv-x="309" d="M70 632l151 109l18 -24l-151 -109z" />
<glyph unicode="&#xb6;" horiz-adv-x="416" d="M50 564q0 56 40 96t96 40h220v-30h-220q-44 0 -75 -31t-31 -75t31 -75t75 -31v-30q-56 0 -96 40t-40 96zM216 0v640h30v-640h-30zM326 0v640h30v-640h-30z" />
<glyph unicode="&#xb7;" horiz-adv-x="160" d="M50 278v60h60v-60h-60z" />
<glyph unicode="&#xb8;" horiz-adv-x="270" d="M107 -109l10 28q9 -4 23 -4q30 0 30 20q0 10 -32 10h-13l15 58l30 -8l-6 -19q36 -7 36 -41q0 -25 -18 -37.5t-43 -12.5q-17 0 -32 6z" />
<glyph unicode="&#xb9;" horiz-adv-x="223" d="M50 686l53 67v-49l-29 -36zM133 481v310l30 38v-348h-30z" />
<glyph unicode="&#xbb;" horiz-adv-x="417" d="M50 163l137 107l-137 108l18 24l169 -132l-169 -131zM180 163l137 107l-137 108l18 24l169 -132l-169 -131z" />
<glyph unicode="&#xbf;" horiz-adv-x="425" d="M50 8q0 112 116 172q41 21 62 46t21 65v81h30v-81q0 -88 -96 -137q-35 -20 -52.5 -33.5t-34 -43t-16.5 -69.5q0 -71 54 -114t125 -43q116 0 166 99l27 -12q-58 -117 -192 -117q-82 0 -146 49.5t-64 137.5zM234 476v60h60v-60h-60z" />
<glyph unicode="&#xc0;" horiz-adv-x="634" d="M49 5l236 626l16 -42l-224 -594zM182 189l11 30h279l-171 455l16 43l268 -712l-28 -10l-73 194h-302zM233 868l18 24l151 -109l-18 -24z" />
<glyph unicode="&#xc1;" horiz-adv-x="634" d="M49 5l236 626l16 -42l-224 -594zM182 189l11 30h279l-171 455l16 43l268 -712l-28 -10l-73 194h-302zM248 783l151 109l18 -24l-151 -109z" />
<glyph unicode="&#xc2;" horiz-adv-x="634" d="M49 5l236 626l16 -42l-224 -594zM182 189l11 30h279l-171 455l16 43l268 -712l-28 -10l-73 194h-302zM228 777l89 115l90 -115l-24 -18l-66 83l-65 -83z" />
<glyph unicode="&#xc3;" horiz-adv-x="634" d="M49 5l236 626l16 -42l-224 -594zM182 189l11 30h279l-171 455l16 43l268 -712l-28 -10l-73 194h-302zM199 812q25 47 70 47q29 0 57 -22q19 -15 38 -15q30 0 47 35l24 -18q-26 -47 -71 -47q-28 0 -56 21q-21 16 -39 16q-30 0 -46 -35z" />
<glyph unicode="&#xc4;" horiz-adv-x="634" d="M49 5l236 626l16 -42l-224 -594zM182 189l11 30h279l-171 455l16 43l268 -712l-28 -10l-73 194h-302zM225 801v50h50v-50h-50zM360 801v50h50v-50h-50z" />
<glyph unicode="&#xc5;" horiz-adv-x="634" d="M49 5l236 626l16 -42l-224 -594zM182 189l11 30h279l-171 455l16 43l268 -712l-28 -10l-73 194h-302zM250 826q0 24 14.5 42t37.5 23v-32q-22 -10 -22 -33q0 -24 22 -34v-31q-23 5 -37.5 23t-14.5 42zM332 761v31q22 10 22 34q0 23 -22 33v32q22 -5 37 -23t15 -42 t-15 -42t-37 -23z" />
<glyph unicode="&#xc6;" horiz-adv-x="748" d="M50 7l347 693h296v-30h-278l-237 -472h189v-30h-204l-87 -175zM397 0v568l30 60v-222h200v-30h-200v-346h266v-30h-296z" />
<glyph unicode="&#xc7;" horiz-adv-x="518" d="M55 350q0 68 21.5 130.5t62.5 113t107.5 80.5t148.5 30q40 0 73 -3l-2 -30q-33 3 -71 3q-75 0 -135.5 -27.5t-97.5 -74t-57 -103.5t-20 -119t20 -119t57 -103t97 -73.5t135 -27.5q39 0 72 3l2 -30q-33 -3 -74 -3q-22 0 -43 3l-6 -19q36 -7 36 -41q0 -25 -18 -37.5 t-43 -12.5q-17 0 -32 6l10 28q9 -4 23 -4q30 0 30 20q0 10 -32 10h-13l14 54q-85 16 -146.5 69.5t-90 124.5t-28.5 152z" />
<glyph unicode="&#xc8;" horiz-adv-x="521" d="M70 0v700h30v-700h-30zM130 0v30h336v-30h-336zM130 376v30h270v-30h-270zM130 670v30h336v-30h-336zM184 868l18 24l151 -109l-18 -24z" />
<glyph unicode="&#xc9;" horiz-adv-x="521" d="M70 0v700h30v-700h-30zM130 0v30h336v-30h-336zM130 376v30h270v-30h-270zM130 670v30h336v-30h-336zM184 783l151 109l18 -24l-151 -109z" />
<glyph unicode="&#xca;" horiz-adv-x="521" d="M70 0v700h30v-700h-30zM130 0v30h336v-30h-336zM130 376v30h270v-30h-270zM130 670v30h336v-30h-336zM179 777l89 115l90 -115l-24 -18l-66 83l-65 -83z" />
<glyph unicode="&#xcb;" horiz-adv-x="521" d="M70 0v700h30v-700h-30zM130 0v30h336v-30h-336zM130 376v30h270v-30h-270zM130 670v30h336v-30h-336zM176 801v50h50v-50h-50zM311 801v50h50v-50h-50z" />
<glyph unicode="&#xcc;" d="M1 868l18 24l151 -109l-18 -24zM70 0v700h30v-700h-30z" />
<glyph unicode="&#xcd;" d="M16 783l151 109l18 -24l-151 -109zM70 0v700h30v-700h-30z" />
<glyph unicode="&#xce;" d="M-4 777l89 115l90 -115l-24 -18l-66 83l-65 -83zM70 0v700h30v-700h-30z" />
<glyph unicode="&#xcf;" d="M-7 801v50h50v-50h-50zM70 0v700h30v-700h-30zM128 801v50h50v-50h-50z" />
<glyph unicode="&#xd1;" horiz-adv-x="557" d="M70 0v611l30 -51v-560h-30zM70 670v59l417 -698v-60zM160 812q25 47 70 47q29 0 57 -22q19 -15 38 -15q30 0 47 35l24 -18q-26 -47 -71 -47q-27 0 -56 21q-21 16 -39 16q-30 0 -46 -35zM457 141v559h30v-609z" />
<glyph unicode="&#xd2;" horiz-adv-x="818" d="M50 350q0 144 100 248t244 110v-30q-132 -6 -223 -101t-91 -227t91 -227.5t223 -101.5v-30q-144 6 -244 110.5t-100 248.5zM325 868l18 24l151 -109l-18 -24zM424 -9v30q132 6 223 101.5t91 227.5t-91 227t-223 101v30q144 -6 244 -110t100 -248t-100 -248.5t-244 -110.5 z" />
<glyph unicode="&#xd3;" horiz-adv-x="818" d="M50 350q0 144 100 248t244 110v-30q-132 -6 -223 -101t-91 -227t91 -227.5t223 -101.5v-30q-144 6 -244 110.5t-100 248.5zM325 783l151 109l18 -24l-151 -109zM424 -9v30q132 6 223 101.5t91 227.5t-91 227t-223 101v30q144 -6 244 -110t100 -248t-100 -248.5 t-244 -110.5z" />
<glyph unicode="&#xd4;" horiz-adv-x="818" d="M50 350q0 144 100 248t244 110v-30q-132 -6 -223 -101t-91 -227t91 -227.5t223 -101.5v-30q-144 6 -244 110.5t-100 248.5zM320 777l89 115l90 -115l-24 -18l-66 83l-65 -83zM424 -9v30q132 6 223 101.5t91 227.5t-91 227t-223 101v30q144 -6 244 -110t100 -248 t-100 -248.5t-244 -110.5z" />
<glyph unicode="&#xd5;" horiz-adv-x="818" d="M50 350q0 144 100 248t244 110v-30q-132 -6 -223 -101t-91 -227t91 -227.5t223 -101.5v-30q-144 6 -244 110.5t-100 248.5zM291 812q25 47 70 47q29 0 57 -22q19 -15 38 -15q30 0 47 35l24 -18q-26 -47 -71 -47q-28 0 -56 21q-21 16 -39 16q-30 0 -46 -35zM424 -9v30 q132 6 223 101.5t91 227.5t-91 227t-223 101v30q144 -6 244 -110t100 -248t-100 -248.5t-244 -110.5z" />
<glyph unicode="&#xd6;" horiz-adv-x="818" d="M50 350q0 144 100 248t244 110v-30q-132 -6 -223 -101t-91 -227t91 -227.5t223 -101.5v-30q-144 6 -244 110.5t-100 248.5zM317 801v50h50v-50h-50zM424 -9v30q132 6 223 101.5t91 227.5t-91 227t-223 101v30q144 -6 244 -110t100 -248t-100 -248.5t-244 -110.5zM452 801 v50h50v-50h-50z" />
<glyph unicode="&#xd7;" horiz-adv-x="480" d="M60 151l338 338l22 -22l-338 -338zM60 467l22 22l136 -136l-22 -22zM262 265l22 22l136 -136l-22 -22z" />
<glyph unicode="&#xd8;" horiz-adv-x="818" d="M50 13l94 94q-94 104 -94 243q0 144 100 248.5t244 110.5v-30q-132 -6 -223 -101.5t-91 -227.5q0 -127 85 -222l465 465q-88 80 -206 86v30q128 -4 227 -95l95 95l22 -22l-95 -95q95 -103 95 -242q0 -144 -100 -248.5t-244 -110.5v30q132 6 223 101.5t91 227.5 q0 127 -86 221l-465 -465q89 -81 207 -85v-30q-130 4 -228 94l-94 -94z" />
<glyph unicode="&#xd9;" horiz-adv-x="558" d="M66 193v507h30v-507q0 -72 48.5 -120t119.5 -53v-30q-83 5 -140.5 61.5t-57.5 141.5zM195 868l18 24l151 -109l-18 -24zM294 -10v30q70 5 119 53t49 120v507h30v-507q0 -85 -57.5 -141.5t-140.5 -61.5z" />
<glyph unicode="&#xda;" horiz-adv-x="558" d="M66 193v507h30v-507q0 -72 48.5 -120t119.5 -53v-30q-83 5 -140.5 61.5t-57.5 141.5zM195 783l151 109l18 -24l-151 -109zM294 -10v30q70 5 119 53t49 120v507h30v-507q0 -85 -57.5 -141.5t-140.5 -61.5z" />
<glyph unicode="&#xdb;" horiz-adv-x="558" d="M66 193v507h30v-507q0 -72 48.5 -120t119.5 -53v-30q-83 5 -140.5 61.5t-57.5 141.5zM190 777l89 115l90 -115l-24 -18l-66 83l-65 -83zM294 -10v30q70 5 119 53t49 120v507h30v-507q0 -85 -57.5 -141.5t-140.5 -61.5z" />
<glyph unicode="&#xdc;" horiz-adv-x="558" d="M66 193v507h30v-507q0 -72 48.5 -120t119.5 -53v-30q-83 5 -140.5 61.5t-57.5 141.5zM187 801v50h50v-50h-50zM294 -10v30q70 5 119 53t49 120v507h30v-507q0 -85 -57.5 -141.5t-140.5 -61.5zM322 801v50h50v-50h-50z" />
<glyph unicode="&#xdd;" horiz-adv-x="558" d="M50 692l26 16l218 -353v-355h-30v345zM195 783l151 109l18 -24l-151 -109zM297 408l185 300l26 -16l-193 -313z" />
<glyph unicode="&#xde;" horiz-adv-x="467" d="M70 0v700h30v-700h-30zM130 136v30h14q113 0 178 54.5t65 130.5t-65.5 130.5t-177.5 54.5h-14v30h14q126 0 199.5 -63.5t73.5 -151.5q0 -89 -73 -152t-200 -63h-14z" />
<glyph unicode="&#xdf;" horiz-adv-x="541" d="M66 0v611q0 64 46.5 106.5t106.5 42.5v-30q-48 0 -85.5 -34t-37.5 -85v-611h-30zM126 506v30h320l-161 -240q81 -14 141 -74.5t60 -137.5q0 -105 -80 -177.5t-216 -72.5v30q122 0 194 64t72 156q0 74 -68 129t-156 55l158 238h-264z" />
<glyph unicode="&#xe0;" horiz-adv-x="532" d="M55 187q0 87 62 141t150 54q80 0 145 -45v-36q-60 51 -145 51q-76 0 -129 -45.5t-53 -119.5t53.5 -120.5t128.5 -46.5q85 0 145 46v-37q-60 -39 -145 -39q-87 0 -149.5 55t-62.5 142zM108 472q77 74 184 74q31 0 61 -10.5t57.5 -33t44.5 -64t17 -97.5v-341h-30v341 q0 91 -45.5 133t-104.5 42q-96 0 -162 -64zM200 717l18 24l151 -109l-18 -24z" />
<glyph unicode="&#xe1;" horiz-adv-x="532" d="M55 187q0 87 62 141t150 54q80 0 145 -45v-36q-60 51 -145 51q-76 0 -129 -45.5t-53 -119.5t53.5 -120.5t128.5 -46.5q85 0 145 46v-37q-60 -39 -145 -39q-87 0 -149.5 55t-62.5 142zM108 472q77 74 184 74q31 0 61 -10.5t57.5 -33t44.5 -64t17 -97.5v-341h-30v341 q0 91 -45.5 133t-104.5 42q-96 0 -162 -64zM214 632l151 109l18 -24l-151 -109z" />
<glyph unicode="&#xe2;" horiz-adv-x="532" d="M55 187q0 87 62 141t150 54q80 0 145 -45v-36q-60 51 -145 51q-76 0 -129 -45.5t-53 -119.5t53.5 -120.5t128.5 -46.5q85 0 145 46v-37q-60 -39 -145 -39q-87 0 -149.5 55t-62.5 142zM108 472q77 74 184 74q31 0 61 -10.5t57.5 -33t44.5 -64t17 -97.5v-341h-30v341 q0 91 -45.5 133t-104.5 42q-96 0 -162 -64zM202 626l89 115l90 -115l-24 -18l-66 83l-65 -83z" />
<glyph unicode="&#xe3;" horiz-adv-x="532" d="M55 187q0 87 62 141t150 54q80 0 145 -45v-36q-60 51 -145 51q-76 0 -129 -45.5t-53 -119.5t53.5 -120.5t128.5 -46.5q85 0 145 46v-37q-60 -39 -145 -39q-87 0 -149.5 55t-62.5 142zM108 472q77 74 184 74q31 0 61 -10.5t57.5 -33t44.5 -64t17 -97.5v-341h-30v341 q0 91 -45.5 133t-104.5 42q-96 0 -162 -64zM166 661q25 47 70 47q29 0 57 -22q19 -15 38 -15q30 0 47 35l24 -18q-26 -47 -71 -47q-27 0 -56 21q-21 16 -39 16q-30 0 -46 -35z" />
<glyph unicode="&#xe4;" horiz-adv-x="532" d="M55 187q0 87 62 141t150 54q80 0 145 -45v-36q-60 51 -145 51q-76 0 -129 -45.5t-53 -119.5t53.5 -120.5t128.5 -46.5q85 0 145 46v-37q-60 -39 -145 -39q-87 0 -149.5 55t-62.5 142zM108 472q77 74 184 74q31 0 61 -10.5t57.5 -33t44.5 -64t17 -97.5v-341h-30v341 q0 91 -45.5 133t-104.5 42q-96 0 -162 -64zM194 650v50h50v-50h-50zM329 650v50h50v-50h-50z" />
<glyph unicode="&#xe5;" horiz-adv-x="532" d="M55 187q0 87 62 141t150 54q80 0 145 -45v-36q-60 51 -145 51q-76 0 -129 -45.5t-53 -119.5t53.5 -120.5t128.5 -46.5q85 0 145 46v-37q-60 -39 -145 -39q-87 0 -149.5 55t-62.5 142zM108 472q77 74 184 74q31 0 61 -10.5t57.5 -33t44.5 -64t17 -97.5v-341h-30v341 q0 91 -45.5 133t-104.5 42q-96 0 -162 -64zM209 675q0 24 14.5 42t37.5 23v-32q-22 -10 -22 -33q0 -24 22 -34v-31q-23 5 -37.5 23t-14.5 42zM291 610v31q22 10 22 34q0 23 -22 33v32q22 -5 37 -23t15 -42t-15 -42t-37 -23z" />
<glyph unicode="&#xe6;" horiz-adv-x="934" d="M55 187q0 87 62 141t150 54q80 0 145 -45v-36q-60 51 -145 51q-76 0 -129 -45.5t-53 -119.5t53.5 -120.5t128.5 -46.5q85 0 145 46v-37q-60 -39 -145 -39q-87 0 -149.5 55t-62.5 142zM108 472q77 74 184 74q62 0 111.5 -38t62.5 -108q32 74 93 110t121 36 q102 0 153 -69.5t51 -182.5h-380q0 10 4 30h344q0 74 -43 133t-129 59q-70 0 -129.5 -50t-74.5 -142q-4 -24 -4 -54v-9q3 -96 80 -165.5t221 -69.5q19 0 61 4v-30q-44 -4 -64 -4q-110 0 -186 41.5t-112 109.5v-147h-30v340q0 92 -45.5 134t-104.5 42q-96 0 -162 -64z" />
<glyph unicode="&#xe7;" horiz-adv-x="503" d="M50 268q0 112 89.5 194t250.5 82q30 0 63 -3l-2 -30q-33 3 -61 3q-146 0 -228 -73.5t-82 -172.5t81.5 -172t227.5 -73q29 0 62 3l2 -30q-33 -3 -64 -3q-34 0 -72 5l-5 -18q36 -7 36 -41q0 -25 -18 -37.5t-43 -12.5q-17 0 -32 6l10 28q9 -4 23 -4q30 0 30 20q0 10 -32 10 h-13l14 54q-113 25 -175 99.5t-62 165.5z" />
<glyph unicode="&#xe8;" horiz-adv-x="562" d="M50 270q0 74 24 130.5t61.5 86.5t76.5 44.5t76 14.5q104 0 164 -71t60 -181h-401q0 15 3 30h366q0 71 -52 131.5t-140 60.5q-34 0 -68.5 -14t-67 -41.5t-52.5 -77t-20 -113.5q0 -98 81.5 -171t229.5 -73q19 0 61 4v-30q-44 -4 -64 -4q-158 0 -248 81t-90 193zM202 717 l18 24l151 -109l-18 -24z" />
<glyph unicode="&#xe9;" horiz-adv-x="562" d="M50 270q0 74 24 130.5t61.5 86.5t76.5 44.5t76 14.5q104 0 164 -71t60 -181h-401q0 15 3 30h366q0 71 -52 131.5t-140 60.5q-34 0 -68.5 -14t-67 -41.5t-52.5 -77t-20 -113.5q0 -98 81.5 -171t229.5 -73q19 0 61 4v-30q-44 -4 -64 -4q-158 0 -248 81t-90 193zM210 632 l151 109l18 -24l-151 -109z" />
<glyph unicode="&#xea;" horiz-adv-x="562" d="M50 270q0 74 24 130.5t61.5 86.5t76.5 44.5t76 14.5q104 0 164 -71t60 -181h-401q0 15 3 30h366q0 71 -52 131.5t-140 60.5q-34 0 -68.5 -14t-67 -41.5t-52.5 -77t-20 -113.5q0 -98 81.5 -171t229.5 -73q19 0 61 4v-30q-44 -4 -64 -4q-158 0 -248 81t-90 193zM202 626 l89 115l90 -115l-24 -18l-66 83l-65 -83z" />
<glyph unicode="&#xeb;" horiz-adv-x="562" d="M50 270q0 74 24 130.5t61.5 86.5t76.5 44.5t76 14.5q104 0 164 -71t60 -181h-401q0 15 3 30h366q0 71 -52 131.5t-140 60.5q-34 0 -68.5 -14t-67 -41.5t-52.5 -77t-20 -113.5q0 -98 81.5 -171t229.5 -73q19 0 61 4v-30q-44 -4 -64 -4q-158 0 -248 81t-90 193zM199 650v50 h50v-50h-50zM334 650v50h50v-50h-50z" />
<glyph unicode="&#xec;" d="M1 717l18 24l151 -109l-18 -24zM70 0v536h30v-536h-30z" />
<glyph unicode="&#xed;" d="M16 632l151 109l18 -24l-151 -109zM70 0v536h30v-536h-30z" />
<glyph unicode="&#xee;" d="M-4 626l89 115l90 -115l-24 -18l-66 83l-65 -83zM70 0v536h30v-536h-30z" />
<glyph unicode="&#xef;" d="M-7 650v50h50v-50h-50zM70 0v536h30v-536h-30zM128 650v50h50v-50h-50z" />
<glyph unicode="&#xf1;" horiz-adv-x="544" d="M66 0v536h30v-536h-30zM126 477v34q64 35 139 35q70 0 126.5 -35t80.5 -99q12 -32 12 -70v-342h-30v342q0 80 -57.5 127t-131.5 47q-77 0 -139 -39zM148 661q25 47 70 47q29 0 57 -22q19 -15 38 -15q30 0 47 35l24 -18q-26 -47 -71 -47q-27 0 -56 21q-21 16 -39 16 q-30 0 -46 -35z" />
<glyph unicode="&#xf2;" horiz-adv-x="656" d="M50 268q0 111 76.5 191t186.5 86v-30q-98 -6 -165.5 -77t-67.5 -170t67.5 -170.5t165.5 -77.5v-29q-110 6 -186.5 86t-76.5 191zM244 717l18 24l151 -109l-18 -24zM343 -9v29q98 6 165.5 77.5t67.5 170.5t-67.5 170t-165.5 77v30q110 -6 186.5 -86t76.5 -191t-76.5 -191 t-186.5 -86z" />
<glyph unicode="&#xf3;" horiz-adv-x="656" d="M50 268q0 111 76.5 191t186.5 86v-30q-98 -6 -165.5 -77t-67.5 -170t67.5 -170.5t165.5 -77.5v-29q-110 6 -186.5 86t-76.5 191zM256 632l151 109l18 -24l-151 -109zM343 -9v29q98 6 165.5 77.5t67.5 170.5t-67.5 170t-165.5 77v30q110 -6 186.5 -86t76.5 -191 t-76.5 -191t-186.5 -86z" />
<glyph unicode="&#xf4;" horiz-adv-x="656" d="M50 268q0 111 76.5 191t186.5 86v-30q-98 -6 -165.5 -77t-67.5 -170t67.5 -170.5t165.5 -77.5v-29q-110 6 -186.5 86t-76.5 191zM239 626l89 115l90 -115l-24 -18l-66 83l-65 -83zM343 -9v29q98 6 165.5 77.5t67.5 170.5t-67.5 170t-165.5 77v30q110 -6 186.5 -86 t76.5 -191t-76.5 -191t-186.5 -86z" />
<glyph unicode="&#xf5;" horiz-adv-x="656" d="M50 268q0 111 76.5 191t186.5 86v-30q-98 -6 -165.5 -77t-67.5 -170t67.5 -170.5t165.5 -77.5v-29q-110 6 -186.5 86t-76.5 191zM210 661q25 47 70 47q29 0 57 -22q20 -15 38 -15q30 0 47 35l24 -18q-26 -47 -71 -47q-27 0 -56 21q-21 16 -39 16q-30 0 -46 -35zM343 -9 v29q98 6 165.5 77.5t67.5 170.5t-67.5 170t-165.5 77v30q110 -6 186.5 -86t76.5 -191t-76.5 -191t-186.5 -86z" />
<glyph unicode="&#xf6;" horiz-adv-x="656" d="M50 268q0 111 76.5 191t186.5 86v-30q-98 -6 -165.5 -77t-67.5 -170t67.5 -170.5t165.5 -77.5v-29q-110 6 -186.5 86t-76.5 191zM236 650v50h50v-50h-50zM343 -9v29q98 6 165.5 77.5t67.5 170.5t-67.5 170t-165.5 77v30q110 -6 186.5 -86t76.5 -191t-76.5 -191 t-186.5 -86zM371 650v50h50v-50h-50z" />
<glyph unicode="&#xf7;" horiz-adv-x="480" d="M55 294v30h370v-30h-370zM210 129v60h60v-60h-60zM210 429v60h60v-60h-60z" />
<glyph unicode="&#xf8;" horiz-adv-x="656" d="M50 11l71 71q-71 81 -71 186q0 111 76.5 191t186.5 86v-30q-98 -6 -165.5 -77t-67.5 -170q0 -95 62 -165l350 351q-64 57 -149 61v30q95 -4 169 -70l72 72l22 -22l-72 -72q72 -78 72 -185q0 -111 -76.5 -191t-186.5 -86v29q98 6 165.5 77.5t67.5 170.5q0 92 -62 164 l-350 -351q63 -55 149 -61v-29q-99 5 -170 69l-71 -71z" />
<glyph unicode="&#xf9;" horiz-adv-x="538" d="M60 193v343h30v-343q0 -72 47 -120t117 -53v-30q-82 5 -138 61.5t-56 141.5zM171 717l18 24l151 -109l-18 -24zM284 -10v30q70 5 117 53t47 120v343h30v-343q0 -85 -56 -141.5t-138 -61.5z" />
<glyph unicode="&#xfa;" horiz-adv-x="538" d="M60 193v343h30v-343q0 -72 47 -120t117 -53v-30q-82 5 -138 61.5t-56 141.5zM191 632l151 109l18 -24l-151 -109zM284 -10v30q70 5 117 53t47 120v343h30v-343q0 -85 -56 -141.5t-138 -61.5z" />
<glyph unicode="&#xfb;" horiz-adv-x="538" d="M60 193v343h30v-343q0 -72 47 -120t117 -53v-30q-82 5 -138 61.5t-56 141.5zM183 626l89 115l90 -115l-24 -18l-66 83l-65 -83zM284 -10v30q70 5 117 53t47 120v343h30v-343q0 -85 -56 -141.5t-138 -61.5z" />
<glyph unicode="&#xfc;" horiz-adv-x="538" d="M60 193v343h30v-343q0 -72 47 -120t117 -53v-30q-82 5 -138 61.5t-56 141.5zM180 650v50h50v-50h-50zM284 -10v30q70 5 117 53t47 120v343h30v-343q0 -85 -56 -141.5t-138 -61.5zM315 650v50h50v-50h-50z" />
<glyph unicode="&#xfd;" horiz-adv-x="542" d="M60 186v350h30v-352q0 -78 56 -126t131 -48t139 52v-39q-64 -43 -138 -43q-82 0 -150 55.5t-68 150.5zM129 -225l20 22q62 -60 128 -60q74 0 121.5 60.5t47.5 142.5v596h30v-596q0 -94 -55.5 -163.5t-143.5 -69.5q-78 0 -148 68zM184 632l151 109l18 -24l-151 -109z" />
<glyph unicode="&#xfe;" horiz-adv-x="514" d="M60 -235v1013h30v-1013h-30zM120 -2v30h4q147 0 228.5 72t81.5 171t-81.5 171t-227.5 72h-5v30h5q160 0 249.5 -81t89.5 -192q0 -112 -89.5 -192.5t-250.5 -80.5h-4z" />
<glyph unicode="&#xff;" horiz-adv-x="542" d="M60 186v350h30v-352q0 -78 56 -126t131 -48t139 52v-39q-64 -43 -138 -43q-82 0 -150 55.5t-68 150.5zM129 -225l20 22q62 -60 128 -60q74 0 121.5 60.5t47.5 142.5v596h30v-596q0 -94 -55.5 -163.5t-143.5 -69.5q-78 0 -148 68zM176 650v50h50v-50h-50zM311 650v50h50 v-50h-50z" />
<glyph unicode="&#x100;" horiz-adv-x="634" d="M49 5l236 626l16 -42l-224 -594zM182 189l11 30h279l-171 455l16 43l268 -712l-28 -10l-73 194h-302zM187 811v30h260v-30h-260z" />
<glyph unicode="&#x101;" horiz-adv-x="532" d="M55 187q0 87 62 141t150 54q80 0 145 -45v-36q-60 51 -145 51q-76 0 -129 -45.5t-53 -119.5t53.5 -120.5t128.5 -46.5q85 0 145 46v-37q-60 -39 -145 -39q-87 0 -149.5 55t-62.5 142zM108 472q77 74 184 74q31 0 61 -10.5t57.5 -33t44.5 -64t17 -97.5v-341h-30v341 q0 91 -45.5 133t-104.5 42q-96 0 -162 -64zM148 660v30h260v-30h-260z" />
<glyph unicode="&#x102;" horiz-adv-x="634" d="M49 5l236 626l16 -42l-224 -594zM182 189l11 30h279l-171 455l16 43l268 -712l-28 -10l-73 194h-302zM217 871h30q0 -27 19 -43.5t51 -16.5t51 16.5t19 43.5h30q0 -38 -28 -64t-72 -26t-72 26t-28 64z" />
<glyph unicode="&#x103;" horiz-adv-x="532" d="M55 187q0 87 62 141t150 54q80 0 145 -45v-36q-60 51 -145 51q-76 0 -129 -45.5t-53 -119.5t53.5 -120.5t128.5 -46.5q85 0 145 46v-37q-60 -39 -145 -39q-87 0 -149.5 55t-62.5 142zM108 472q77 74 184 74q31 0 61 -10.5t57.5 -33t44.5 -64t17 -97.5v-341h-30v341 q0 91 -45.5 133t-104.5 42q-96 0 -162 -64zM177 720h30q0 -27 19 -43.5t51 -16.5t51 16.5t19 43.5h30q0 -38 -28 -64t-72 -26t-72 26t-28 64z" />
<glyph unicode="&#x104;" horiz-adv-x="634" d="M50 5l229 626l15 -40l-217 -597zM179 189l11 30h280l-176 455l16 43l274 -710l-13 -6l7 -13q-46 -24 -46 -47q0 -17 21 -17q13 0 30 11l16 -26q-24 -15 -46 -15q-23 0 -37 13t-14 34q0 38 50 66l-70 182h-303z" />
<glyph unicode="&#x105;" horiz-adv-x="532" d="M55 187q0 87 62 141t150 54q80 0 145 -45v-36q-60 51 -145 51q-76 0 -129 -45.5t-53 -119.5t53.5 -120.5t128.5 -46.5q85 0 145 47v-38q-60 -39 -145 -39q-87 0 -149.5 55t-62.5 142zM108 472q77 74 184 74q31 0 61 -10.5t57.5 -33t44.5 -64t17 -97.5v-341h-15l7 -12 q-46 -24 -46 -47q0 -17 21 -17q13 0 30 11l16 -26q-24 -15 -46 -15q-23 0 -37 13t-14 34q0 40 54 69v331q0 91 -45.5 133t-104.5 42q-96 0 -162 -64z" />
<glyph unicode="&#x106;" horiz-adv-x="518" d="M55 350q0 68 21.5 130.5t62.5 113t107.5 80.5t148.5 30q40 0 73 -3l-2 -30q-33 3 -71 3q-75 0 -135.5 -27.5t-97.5 -74t-57 -103.5t-20 -119t20 -119t57 -103t97 -73.5t135 -27.5q39 0 72 3l2 -30q-33 -3 -74 -3q-82 0 -148 30t-107 80.5t-62.5 112.5t-21.5 130zM241 783 l151 109l18 -24l-151 -109z" />
<glyph unicode="&#x107;" horiz-adv-x="503" d="M50 268q0 112 89.5 194t249.5 82q31 0 64 -3l-2 -30q-33 3 -62 3q-146 0 -227.5 -73.5t-81.5 -172.5t81.5 -172t227.5 -73q29 0 62 3l2 -30q-33 -3 -64 -3q-160 0 -249.5 81.5t-89.5 193.5zM221 632l151 109l18 -24l-151 -109z" />
<glyph unicode="&#x108;" horiz-adv-x="518" d="M55 350q0 68 21.5 130.5t62.5 113t107.5 80.5t148.5 30q40 0 73 -3l-2 -30q-33 3 -71 3q-75 0 -135.5 -27.5t-97.5 -74t-57 -103.5t-20 -119t20 -119t57 -103t97 -73.5t135 -27.5q39 0 72 3l2 -30q-33 -3 -74 -3q-82 0 -148 30t-107 80.5t-62.5 112.5t-21.5 130zM227 777 l89 115l90 -115l-24 -18l-66 83l-65 -83z" />
<glyph unicode="&#x109;" horiz-adv-x="503" d="M50 268q0 112 89.5 194t249.5 82q31 0 64 -3l-2 -30q-33 3 -62 3q-146 0 -227.5 -73.5t-81.5 -172.5t81.5 -172t227.5 -73q29 0 62 3l2 -30q-33 -3 -64 -3q-160 0 -249.5 81.5t-89.5 193.5zM206 626l89 115l90 -115l-24 -18l-66 83l-65 -83z" />
<glyph unicode="&#x10a;" horiz-adv-x="518" d="M55 350q0 68 21.5 130.5t62.5 113t107.5 80.5t148.5 30q40 0 73 -3l-2 -30q-33 3 -71 3q-75 0 -135.5 -27.5t-97.5 -74t-57 -103.5t-20 -119t20 -119t57 -103t97 -73.5t135 -27.5q39 0 72 3l2 -30q-33 -3 -74 -3q-82 0 -148 30t-107 80.5t-62.5 112.5t-21.5 130zM293 801 v50h50v-50h-50z" />
<glyph unicode="&#x10b;" horiz-adv-x="503" d="M50 268q0 112 89.5 194t249.5 82q31 0 64 -3l-2 -30q-33 3 -62 3q-146 0 -227.5 -73.5t-81.5 -172.5t81.5 -172t227.5 -73q29 0 62 3l2 -30q-33 -3 -64 -3q-160 0 -249.5 81.5t-89.5 193.5zM282 650v50h50v-50h-50z" />
<glyph unicode="&#x10c;" horiz-adv-x="518" d="M55 350q0 68 21.5 130.5t62.5 113t107.5 80.5t148.5 30q40 0 73 -3l-2 -30q-33 3 -71 3q-75 0 -135.5 -27.5t-97.5 -74t-57 -103.5t-20 -119t20 -119t57 -103t97 -73.5t135 -27.5q39 0 72 3l2 -30q-33 -3 -74 -3q-82 0 -148 30t-107 80.5t-62.5 112.5t-21.5 130zM236 874 l24 18l65 -83l66 83l24 -18l-90 -115z" />
<glyph unicode="&#x10d;" horiz-adv-x="503" d="M50 268q0 112 89.5 194t249.5 82q31 0 64 -3l-2 -30q-33 3 -62 3q-146 0 -227.5 -73.5t-81.5 -172.5t81.5 -172t227.5 -73q29 0 62 3l2 -30q-33 -3 -64 -3q-160 0 -249.5 81.5t-89.5 193.5zM208 723l24 18l65 -83l66 83l24 -18l-90 -115z" />
<glyph unicode="&#x10e;" horiz-adv-x="551" d="M70 0v700q4 0 14 1t16 1v-704q-6 0 -16 1t-14 1zM110 874l24 18l65 -83l66 83l24 -18l-90 -115zM130 -3v30h27q75 0 135 27.5t97 73.5t57 103t20 119t-20 119t-57 103.5t-97.5 74t-134.5 27.5q-17 0 -27 -1v30q10 1 27 1q108 0 187 -52t115.5 -131t36.5 -171 q0 -68 -21.5 -130t-62.5 -112.5t-107 -80.5t-148 -30h-27z" />
<glyph unicode="&#x10f;" horiz-adv-x="600" d="M50 270q0 112 89.5 193t250.5 81h16v-30h-16q-147 0 -228.5 -72.5t-81.5 -171.5t81.5 -171t227.5 -72h17v-30h-17q-160 0 -249.5 81t-89.5 192zM436 -2v895h30v-893q-20 -2 -30 -2zM536 838v55h60v-70q0 -58 -47 -75l-10 28q27 9 27 47v15h-30z" />
<glyph unicode="&#x110;" horiz-adv-x="561" d="M-15 350v30h95v320q6 0 30 2v-704q-24 2 -30 2v350h-95zM140 -3v30h27q75 0 135 27.5t97 73.5t57 103t20 119t-20 119t-57 103.5t-97.5 74t-134.5 27.5q-17 0 -27 -1v30q10 1 27 1q108 0 187 -52t115.5 -131t36.5 -171q0 -68 -21.5 -130t-62.5 -112.5t-107 -80.5 t-148 -30h-27zM140 350v30h105v-30h-105z" />
<glyph unicode="&#x111;" horiz-adv-x="547" d="M50 270q0 112 89.5 193t250.5 81h16v-30h-16q-147 0 -228.5 -72.5t-81.5 -171.5t81.5 -171t227.5 -72h17v-30h-17q-160 0 -249.5 81t-89.5 192zM321 730v30h260v-30h-260zM436 -2v702h30v-700q-10 -2 -30 -2zM436 790v103h30v-103h-30z" />
<glyph unicode="&#x112;" horiz-adv-x="521" d="M70 0v700h30v-700h-30zM130 0v30h336v-30h-336zM130 376v30h270v-30h-270zM130 670v30h336v-30h-336zM138 811v30h260v-30h-260z" />
<glyph unicode="&#x113;" horiz-adv-x="562" d="M50 270q0 74 24 130.5t61.5 86.5t76.5 44.5t76 14.5q104 0 164 -71t60 -181h-401q0 15 3 30h366q0 71 -52 131.5t-140 60.5q-34 0 -68.5 -14t-67 -41.5t-52.5 -77t-20 -113.5q0 -98 81.5 -171t229.5 -73q19 0 61 4v-30q-44 -4 -64 -4q-158 0 -248 81t-90 193zM151 660v30 h260v-30h-260z" />
<glyph unicode="&#x114;" horiz-adv-x="521" d="M70 0v700h30v-700h-30zM130 0v30h336v-30h-336zM130 376v30h270v-30h-270zM130 670v30h336v-30h-336zM168 871h30q0 -27 19 -43.5t51 -16.5t51 16.5t19 43.5h30q0 -38 -28 -64t-72 -26t-72 26t-28 64z" />
<glyph unicode="&#x115;" horiz-adv-x="562" d="M50 270q0 74 24 130.5t61.5 86.5t76.5 44.5t76 14.5q104 0 164 -71t60 -181h-401q0 15 3 30h366q0 71 -52 131.5t-140 60.5q-34 0 -68.5 -14t-67 -41.5t-52.5 -77t-20 -113.5q0 -98 81.5 -171t229.5 -73q19 0 61 4v-30q-44 -4 -64 -4q-158 0 -248 81t-90 193zM181 720h30 q0 -27 19 -43.5t51 -16.5t51 16.5t19 43.5h30q0 -38 -28 -64t-72 -26t-72 26t-28 64z" />
<glyph unicode="&#x116;" horiz-adv-x="521" d="M70 0v700h30v-700h-30zM130 0v30h336v-30h-336zM130 376v30h270v-30h-270zM130 670v30h336v-30h-336zM243 801v50h50v-50h-50z" />
<glyph unicode="&#x117;" horiz-adv-x="562" d="M50 270q0 74 24 130.5t61.5 86.5t76.5 44.5t76 14.5q104 0 164 -71t60 -181h-401q0 15 3 30h366q0 71 -52 131.5t-140 60.5q-34 0 -68.5 -14t-67 -41.5t-52.5 -77t-20 -113.5q0 -98 81.5 -171t229.5 -73q19 0 61 4v-30q-44 -4 -64 -4q-158 0 -248 81t-90 193zM256 650v50 h50v-50h-50z" />
<glyph unicode="&#x118;" horiz-adv-x="521" d="M70 0v700h30v-700h-30zM130 0v30h336v-30h-91l7 -12q-46 -24 -46 -47q0 -17 21 -17q13 0 30 11l16 -26q-24 -15 -46 -15q-23 0 -37 13t-14 34q0 34 38 59h-214zM130 376v30h270v-30h-270zM130 670v30h336v-30h-336z" />
<glyph unicode="&#x119;" horiz-adv-x="562" d="M50 270q0 74 24 130.5t61.5 86.5t76.5 44.5t76 14.5q104 0 164 -71t60 -181h-401q0 15 3 30h366q0 71 -52 131.5t-140 60.5q-34 0 -68.5 -14t-67 -41.5t-52.5 -77t-20 -113.5q0 -98 81 -170.5t230 -72.5q29 0 61 3v-30q-44 -4 -64 -4q-28 0 -52 3l4 -8q-46 -24 -46 -47 q0 -17 21 -17q13 0 30 11l16 -26q-24 -15 -46 -15q-23 0 -37 13t-14 34q0 34 38 59q-119 22 -185.5 97t-66.5 170z" />
<glyph unicode="&#x11a;" horiz-adv-x="521" d="M70 0v700h30v-700h-30zM130 0v30h336v-30h-336zM130 376v30h270v-30h-270zM130 670v30h336v-30h-336zM179 874l24 18l65 -83l66 83l24 -18l-90 -115z" />
<glyph unicode="&#x11b;" horiz-adv-x="562" d="M50 270q0 74 24 130.5t61.5 86.5t76.5 44.5t76 14.5q104 0 164 -71t60 -181h-401q0 15 3 30h366q0 71 -52 131.5t-140 60.5q-34 0 -68.5 -14t-67 -41.5t-52.5 -77t-20 -113.5q0 -98 81.5 -171t229.5 -73q19 0 61 4v-30q-44 -4 -64 -4q-158 0 -248 81t-90 193zM201 723 l24 18l65 -83l66 83l24 -18l-90 -115z" />
<glyph unicode="&#x11c;" horiz-adv-x="547" d="M55 350q0 92 36.5 171t115.5 131t187 52q35 0 87 -4v-31q-42 5 -87 5q-74 0 -134.5 -27.5t-97.5 -74t-57 -103.5t-20 -119t20 -119t57 -103t97 -73.5t135 -27.5h27v-30h-27q-82 0 -148 30t-107 80.5t-62.5 112.5t-21.5 130zM250 777l89 115l90 -115l-24 -18l-66 83 l-65 -83zM451 -2v310h30v-308q-10 0 -30 -2z" />
<glyph unicode="&#x11d;" horiz-adv-x="532" d="M50 270q0 111 89.5 192t249.5 81h17v-30h-17q-146 0 -227.5 -72t-81.5 -171t81.5 -171.5t228.5 -72.5h16v-30h-16q-161 0 -250.5 81t-89.5 193zM119 -225l20 22q62 -60 128 -60q74 0 121.5 60.5t47.5 142.5v602q20 -2 30 -2v-600q0 -94 -55.5 -163.5t-143.5 -69.5 q-78 0 -148 68zM206 626l89 115l90 -115l-24 -18l-66 83l-65 -83z" />
<glyph unicode="&#x11e;" horiz-adv-x="547" d="M55 350q0 92 36.5 171t115.5 131t187 52q35 0 87 -4v-31q-42 5 -87 5q-74 0 -134.5 -27.5t-97.5 -74t-57 -103.5t-20 -119t20 -119t57 -103t97 -73.5t135 -27.5h27v-30h-27q-82 0 -148 30t-107 80.5t-62.5 112.5t-21.5 130zM239 871h30q0 -27 19 -43.5t51 -16.5t51 16.5 t19 43.5h30q0 -38 -28 -64t-72 -26t-72 26t-28 64zM451 -2v310h30v-308q-10 0 -30 -2z" />
<glyph unicode="&#x11f;" horiz-adv-x="532" d="M50 270q0 111 89.5 192t249.5 81h17v-30h-17q-146 0 -227.5 -72t-81.5 -171t81.5 -171.5t228.5 -72.5h16v-30h-16q-161 0 -250.5 81t-89.5 193zM119 -225l20 22q62 -60 128 -60q74 0 121.5 60.5t47.5 142.5v602q20 -2 30 -2v-600q0 -94 -55.5 -163.5t-143.5 -69.5 q-78 0 -148 68zM206 720h30q0 -27 19 -43.5t51 -16.5t51 16.5t19 43.5h30q0 -38 -28 -64t-72 -26t-72 26t-28 64z" />
<glyph unicode="&#x120;" horiz-adv-x="547" d="M55 350q0 92 36.5 171t115.5 131t187 52q35 0 87 -4v-31q-42 5 -87 5q-74 0 -134.5 -27.5t-97.5 -74t-57 -103.5t-20 -119t20 -119t57 -103t97 -73.5t135 -27.5h27v-30h-27q-82 0 -148 30t-107 80.5t-62.5 112.5t-21.5 130zM314 801v50h50v-50h-50zM451 -2v310h30v-308 q-10 0 -30 -2z" />
<glyph unicode="&#x121;" horiz-adv-x="532" d="M50 270q0 111 89.5 192t249.5 81h17v-30h-17q-146 0 -227.5 -72t-81.5 -171t81.5 -171.5t228.5 -72.5h16v-30h-16q-161 0 -250.5 81t-89.5 193zM119 -225l20 22q62 -60 128 -60q74 0 121.5 60.5t47.5 142.5v602q20 -2 30 -2v-600q0 -94 -55.5 -163.5t-143.5 -69.5 q-78 0 -148 68zM284 650v50h50v-50h-50z" />
<glyph unicode="&#x122;" horiz-adv-x="547" d="M55 350q0 92 36.5 171t115.5 131t187 52q35 0 87 -4v-31q-42 5 -87 5q-74 0 -134.5 -27.5t-97.5 -74t-57 -103.5t-20 -119t20 -119t57 -103t97 -73.5t135 -27.5h27v-30h-27q-82 0 -148 30t-107 80.5t-62.5 112.5t-21.5 130zM315 -50h60v-70q0 -58 -47 -75l-10 28 q27 9 27 47v15h-30v55zM451 -2v310h30v-308q-10 0 -30 -2z" />
<glyph unicode="&#x123;" horiz-adv-x="532" d="M50 270q0 111 89.5 192t249.5 81h17v-30h-17q-146 0 -227.5 -72t-81.5 -171t81.5 -171.5t228.5 -72.5h16v-30h-16q-161 0 -250.5 81t-89.5 193zM119 -225l20 22q62 -60 128 -60q74 0 121.5 60.5t47.5 142.5v602q20 -2 30 -2v-600q0 -94 -55.5 -163.5t-143.5 -69.5 q-78 0 -148 68zM279 602v70q0 58 47 75l10 -28q-27 -9 -27 -47v-15h30v-55h-60z" />
<glyph unicode="&#x124;" horiz-adv-x="546" d="M70 0v700h30v-700h-30zM130 376v30h316v294h30v-700h-30v376h-316zM184 777l89 115l90 -115l-24 -18l-66 83l-65 -83z" />
<glyph unicode="&#x125;" horiz-adv-x="543" d="M-8 983l89 115l90 -115l-24 -18l-66 83l-65 -83zM66 0v893h30v-893h-30zM126 477v34q65 35 137 35q70 0 126.5 -34t80.5 -100q13 -33 13 -70v-342h-30v340q0 82 -57.5 129t-133.5 47q-74 0 -136 -39z" />
<glyph unicode="&#x126;" horiz-adv-x="546" d="M13 536v30h520v-30h-520zM70 0v506h30v-506h-30zM70 596v104h30v-104h-30zM130 376v30h316v100h30v-506h-30v376h-316zM446 596v104h30v-104h-30z" />
<glyph unicode="&#x127;" horiz-adv-x="558" d="M-34 700v30h260v-30h-260zM81 0v670h30v-670h-30zM81 760v133h30v-133h-30zM141 477v34q65 35 137 35q70 0 126.5 -34t80.5 -100q13 -33 13 -70v-342h-30v340q0 82 -57.5 129t-133.5 47q-74 0 -136 -39z" />
<glyph unicode="&#x128;" d="M-33 812q25 47 70 47q29 0 57 -22q19 -15 38 -15q30 0 47 35l24 -18q-26 -47 -71 -47q-28 0 -56 21q-21 16 -39 16q-30 0 -46 -35zM70 0v700h30v-700h-30z" />
<glyph unicode="&#x129;" d="M-33 661q25 47 70 47q29 0 57 -22q19 -15 38 -15q30 0 47 35l24 -18q-26 -47 -71 -47q-28 0 -56 21q-21 16 -39 16q-30 0 -46 -35zM70 0v536h30v-536h-30z" />
<glyph unicode="&#x12a;" d="M-45 811v30h260v-30h-260zM70 0v700h30v-700h-30z" />
<glyph unicode="&#x12b;" d="M-45 660v30h260v-30h-260zM70 0v536h30v-536h-30z" />
<glyph unicode="&#x12c;" d="M-15 871h30q0 -27 19 -43.5t51 -16.5t51 16.5t19 43.5h30q0 -38 -28 -64t-72 -26t-72 26t-28 64zM70 0v700h30v-700h-30z" />
<glyph unicode="&#x12d;" d="M-15 720h30q0 -27 19 -43.5t51 -16.5t51 16.5t19 43.5h30q0 -38 -28 -64t-72 -26t-72 26t-28 64zM70 0v536h30v-536h-30z" />
<glyph unicode="&#x12e;" d="M22 -59q0 38 48 65v694h30v-700h-9l7 -12q-46 -24 -46 -47q0 -17 21 -17q13 0 30 11l16 -26q-24 -15 -46 -15q-23 0 -37 13t-14 34z" />
<glyph unicode="&#x12f;" d="M22 -59q0 38 48 65v530h30v-536h-9l7 -12q-46 -24 -46 -47q0 -17 21 -17q13 0 30 11l16 -26q-24 -15 -46 -15q-23 0 -37 13t-14 34z" />
<glyph unicode="&#x130;" d="M60 801v50h50v-50h-50zM70 0v700h30v-700h-30z" />
<glyph unicode="&#x131;" d="M70 0v536h30v-536h-30z" />
<glyph unicode="&#x132;" horiz-adv-x="629" d="M70 0v700h30v-700h-30zM215 58l21 23q66 -61 127 -61q60 0 102.5 38.5t57.5 95.5q10 36 10 78v468h30v-477q0 -99 -56.5 -166t-143.5 -67q-80 0 -148 68z" />
<glyph unicode="&#x133;" horiz-adv-x="340" d="M48 -232l26 14q26 -45 72 -45q40 0 67 34.5t27 94.5v670h30v-670q0 -73 -35.5 -116t-88.5 -43q-64 0 -98 61zM60 650v50h50v-50h-50zM70 0v536h30v-536h-30zM230 651v49h50v-49h-50z" />
<glyph unicode="&#x134;" horiz-adv-x="459" d="M45 58l21 23q66 -61 127 -61q60 0 102.5 38.5t57.5 95.5q10 36 10 78v468h30v-477q0 -99 -56.5 -166t-143.5 -67q-80 0 -148 68zM289 777l89 115l90 -115l-24 -18l-66 83l-65 -83z" />
<glyph unicode="&#x135;" d="M-122 -232l26 14q26 -45 72 -45q40 0 67 34.5t27 94.5v670h30v-670q0 -73 -35.5 -116t-88.5 -43q-64 0 -98 61zM-4 626l89 115l90 -115l-24 -18l-66 83l-65 -83z" />
<glyph unicode="&#x136;" horiz-adv-x="576" d="M70 0v700h30v-700h-30zM130 321v41l375 349l20 -22zM178 325l22 20l326 -335l-22 -20zM268 -50h60v-70q0 -58 -47 -75l-10 28q27 9 27 47v15h-30v55z" />
<glyph unicode="&#x137;" horiz-adv-x="570" d="M66 0v893h30v-893h-30zM126 232v38l376 277l18 -24zM186 238l25 19l309 -244l-18 -24zM245 -50h60v-70q0 -58 -47 -75l-10 28q27 9 27 47v15h-30v55z" />
<glyph unicode="&#x139;" horiz-adv-x="493" d="M16 783l151 109l18 -24l-151 -109zM70 0v700h30v-700h-30zM130 0v30h308v-30h-308z" />
<glyph unicode="&#x13a;" horiz-adv-x="150" d="M6 989l151 109l18 -24l-151 -109zM60 0v893h30v-893h-30z" />
<glyph unicode="&#x13b;" horiz-adv-x="493" d="M70 0v700h30v-700h-30zM130 0v30h308v-30h-308zM224 -50h60v-70q0 -58 -47 -75l-10 28q27 9 27 47v15h-30v55z" />
<glyph unicode="&#x13c;" horiz-adv-x="150" d="M45 -50h60v-70q0 -58 -47 -75l-10 28q27 9 27 47v15h-30v55zM60 0v893h30v-893h-30z" />
<glyph unicode="&#x13d;" horiz-adv-x="493" d="M70 0v700h30v-700h-30zM130 0v30h308v-30h-308zM170 645v55h60v-70q0 -58 -47 -75l-10 28q27 9 27 47v15h-30z" />
<glyph unicode="&#x13e;" horiz-adv-x="150" d="M-14 1080l24 18l65 -83l66 83l24 -18l-90 -115zM60 0v893h30v-893h-30z" />
<glyph unicode="&#x13f;" horiz-adv-x="493" d="M70 0v700h30v-700h-30zM130 0v30h308v-30h-308zM221 355v50h50v-50h-50z" />
<glyph unicode="&#x140;" horiz-adv-x="150" d="M50 960v50h50v-50h-50zM60 0v893h30v-893h-30z" />
<glyph unicode="&#x141;" horiz-adv-x="493" d="M3 427l168 121l18 -24l-168 -121zM70 0v401l30 22v-393h338v-30h-368zM70 512v188h30v-166z" />
<glyph unicode="&#x142;" horiz-adv-x="162" d="M-4 505l171 123l18 -24l-171 -123zM66 0v481l30 22v-503h-30zM66 592v301h30v-279z" />
<glyph unicode="&#x143;" horiz-adv-x="557" d="M70 0v611l30 -51v-560h-30zM70 670v59l417 -698v-60zM194 783l151 109l18 -24l-151 -109zM457 141v559h30v-609z" />
<glyph unicode="&#x144;" horiz-adv-x="544" d="M66 0v536h30v-536h-30zM126 477v34q64 35 139 35q70 0 126.5 -35t80.5 -99q12 -32 12 -70v-342h-30v342q0 80 -57.5 127t-131.5 47q-77 0 -139 -39zM185 632l151 109l18 -24l-151 -109z" />
<glyph unicode="&#x145;" horiz-adv-x="557" d="M70 0v611l30 -51v-560h-30zM70 670v59l417 -698v-60zM248 -50h60v-70q0 -58 -47 -75l-10 28q27 9 27 47v15h-30v55zM457 141v559h30v-609z" />
<glyph unicode="&#x146;" horiz-adv-x="544" d="M66 0v536h30v-536h-30zM126 477v34q64 35 139 35q70 0 126.5 -35t80.5 -99q12 -32 12 -70v-342h-30v342q0 80 -57.5 127t-131.5 47q-77 0 -139 -39zM245 -50h60v-70q0 -58 -47 -75l-10 28q27 9 27 47v15h-30v55z" />
<glyph unicode="&#x147;" horiz-adv-x="557" d="M70 0v611l30 -51v-560h-30zM70 670v59l417 -698v-60zM189 874l24 18l65 -83l66 83l24 -18l-90 -115zM457 141v559h30v-609z" />
<glyph unicode="&#x148;" horiz-adv-x="544" d="M66 0v536h30v-536h-30zM126 477v34q64 35 139 35q70 0 126.5 -35t80.5 -99q12 -32 12 -70v-342h-30v342q0 80 -57.5 127t-131.5 47q-77 0 -139 -39zM177 723l24 18l65 -83l66 83l24 -18l-90 -115z" />
<glyph unicode="&#x149;" horiz-adv-x="544" d="M51 662v55h60v-70q0 -58 -47 -75l-10 28q27 9 27 47v15h-30zM66 0v536h30v-536h-30zM126 477v34q64 35 139 35q70 0 126.5 -35t80.5 -99q12 -32 12 -70v-342h-30v342q0 80 -57.5 127t-131.5 47q-77 0 -139 -39z" />
<glyph unicode="&#x14c;" horiz-adv-x="818" d="M50 350q0 144 100 248t244 110v-30q-132 -6 -223 -101t-91 -227t91 -227.5t223 -101.5v-30q-144 6 -244 110.5t-100 248.5zM279 811v30h260v-30h-260zM424 -9v30q132 6 223 101.5t91 227.5t-91 227t-223 101v30q144 -6 244 -110t100 -248t-100 -248.5t-244 -110.5z" />
<glyph unicode="&#x14d;" horiz-adv-x="656" d="M50 268q0 111 76.5 191t186.5 86v-30q-98 -6 -165.5 -77t-67.5 -170t67.5 -170.5t165.5 -77.5v-29q-110 6 -186.5 86t-76.5 191zM198 660v30h260v-30h-260zM343 -9v29q98 6 165.5 77.5t67.5 170.5t-67.5 170t-165.5 77v30q110 -6 186.5 -86t76.5 -191t-76.5 -191 t-186.5 -86z" />
<glyph unicode="&#x14e;" horiz-adv-x="818" d="M50 350q0 144 100 248t244 110v-30q-132 -6 -223 -101t-91 -227t91 -227.5t223 -101.5v-30q-144 6 -244 110.5t-100 248.5zM309 871h30q0 -27 19 -43.5t51 -16.5t51 16.5t19 43.5h30q0 -38 -28 -64t-72 -26t-72 26t-28 64zM424 -9v30q132 6 223 101.5t91 227.5t-91 227 t-223 101v30q144 -6 244 -110t100 -248t-100 -248.5t-244 -110.5z" />
<glyph unicode="&#x14f;" horiz-adv-x="656" d="M50 268q0 111 76.5 191t186.5 86v-30q-98 -6 -165.5 -77t-67.5 -170t67.5 -170.5t165.5 -77.5v-29q-110 6 -186.5 86t-76.5 191zM228 720h30q0 -27 19 -43.5t51 -16.5t51 16.5t19 43.5h30q0 -38 -28 -64t-72 -26t-72 26t-28 64zM343 -9v29q98 6 165.5 77.5t67.5 170.5 t-67.5 170t-165.5 77v30q110 -6 186.5 -86t76.5 -191t-76.5 -191t-186.5 -86z" />
<glyph unicode="&#x150;" horiz-adv-x="818" d="M50 350q0 144 100 248t244 110v-30q-132 -6 -223 -101t-91 -227t91 -227.5t223 -101.5v-30q-144 6 -244 110.5t-100 248.5zM288 783l151 109l18 -24l-151 -109zM410 783l151 109l18 -24l-151 -109zM424 -9v30q132 6 223 101.5t91 227.5t-91 227t-223 101v30 q144 -6 244 -110t100 -248t-100 -248.5t-244 -110.5z" />
<glyph unicode="&#x151;" horiz-adv-x="656" d="M50 268q0 111 76.5 191t186.5 86v-30q-98 -6 -165.5 -77t-67.5 -170t67.5 -170.5t165.5 -77.5v-29q-110 6 -186.5 86t-76.5 191zM204 632l151 109l18 -24l-151 -109zM326 632l151 109l18 -24l-151 -109zM343 -9v29q98 6 165.5 77.5t67.5 170.5t-67.5 170t-165.5 77v30 q110 -6 186.5 -86t76.5 -191t-76.5 -191t-186.5 -86z" />
<glyph unicode="&#x152;" horiz-adv-x="1191" d="M50 350q0 144 100 248t244 110v-30q-132 -6 -223 -101t-91 -227t91 -227.5t223 -101.5v-30q-144 6 -244 110.5t-100 248.5zM424 -9v30q132 6 223 101.5t91 227.5t-91 227t-223 101v30q104 -4 188.5 -63t125.5 -152v207h30v-700h-30v206q-41 -93 -125.5 -152t-188.5 -63z M798 0v30h336v-30h-336zM798 376v30h270v-30h-270zM798 670v30h336v-30h-336z" />
<glyph unicode="&#x153;" horiz-adv-x="1088" d="M50 268q0 111 76.5 191t186.5 86v-30q-98 -6 -165.5 -77t-67.5 -170t67.5 -170.5t165.5 -77.5v-29q-110 6 -186.5 86t-76.5 191zM343 -9v29q98 6 165.5 77.5t67.5 170.5t-67.5 170t-165.5 77v30q82 -4 148.5 -53.5t96.5 -125.5q17 63 58.5 105.5t83.5 58t84 15.5 q104 0 164 -70.5t60 -180.5h-431q-1 -5 -1 -15v-9q0 -98 81 -170.5t230 -72.5q29 0 61 3v-30q-44 -4 -64 -4q-124 0 -207.5 52t-114.5 133q-27 -81 -95 -133.5t-154 -56.5zM610 324h396q0 71 -52 131t-140 60q-71 0 -130 -49.5t-74 -141.5z" />
<glyph unicode="&#x154;" horiz-adv-x="546" d="M70 0v700q10 0 30 2v-702h-30zM130 236v30h17q146 0 227.5 60t81.5 143t-81.5 143.5t-227.5 60.5h-17v30h17q160 0 249.5 -69.5t89.5 -164.5q0 -66 -45.5 -123t-130.5 -86l191 -251l-24 -18l-198 260q-57 -15 -132 -15h-17zM138 783l151 109l18 -24l-151 -109z" />
<glyph unicode="&#x155;" horiz-adv-x="300" d="M66 0v536h30v-536h-30zM81 632l151 109l18 -24l-151 -109zM126 477v34q64 35 139 35v-30q-77 0 -139 -39z" />
<glyph unicode="&#x156;" horiz-adv-x="546" d="M70 0v700q10 0 30 2v-702h-30zM130 236v30h17q146 0 227.5 60t81.5 143t-81.5 143.5t-227.5 60.5h-17v30h17q160 0 249.5 -69.5t89.5 -164.5q0 -66 -45.5 -123t-130.5 -86l191 -251l-24 -18l-198 260q-57 -15 -132 -15h-17zM255 -50h60v-70q0 -58 -47 -75l-10 28 q27 9 27 47v15h-30v55z" />
<glyph unicode="&#x157;" horiz-adv-x="300" d="M66 0v536h30v-536h-30zM125 -50h60v-70q0 -58 -47 -75l-10 28q27 9 27 47v15h-30v55zM126 477v34q64 35 139 35v-30q-77 0 -139 -39z" />
<glyph unicode="&#x158;" horiz-adv-x="546" d="M70 0v700q10 0 30 2v-702h-30zM119 874l24 18l65 -83l66 83l24 -18l-90 -115zM130 236v30h17q146 0 227.5 60t81.5 143t-81.5 143.5t-227.5 60.5h-17v30h17q160 0 249.5 -69.5t89.5 -164.5q0 -66 -45.5 -123t-130.5 -86l191 -251l-24 -18l-198 260q-57 -15 -132 -15h-17z " />
<glyph unicode="&#x159;" horiz-adv-x="300" d="M66 0v536h30v-536h-30zM76 723l24 18l65 -83l66 83l24 -18l-90 -115zM126 477v34q64 35 139 35v-30q-77 0 -139 -39z" />
<glyph unicode="&#x15a;" horiz-adv-x="516" d="M55 520q0 80 55 133t138 58v-30q-71 -5 -117 -49.5t-46 -111.5q0 -30 15.5 -55.5t44.5 -44.5t55.5 -31.5t62.5 -24.5q40 -14 70 -28t61.5 -36t49 -52.5t17.5 -67.5q0 -80 -55 -133.5t-138 -58.5v30q71 5 117 50t46 112q0 30 -15.5 55.5t-44.5 44.5t-55.5 31.5t-62.5 24.5 q-40 14 -70 28t-61.5 36t-49 52.5t-17.5 67.5zM59 106l28 12q41 -93 151 -100v-30q-132 7 -179 118zM174 783l151 109l18 -24l-151 -109zM278 681v30q61 -3 108.5 -32.5t70.5 -84.5l-28 -12q-41 92 -151 99z" />
<glyph unicode="&#x15b;" horiz-adv-x="464" d="M50 388q0 66 62 110.5t163 44.5q59 0 110 -21l-12 -28q-49 19 -98 19q-88 0 -141.5 -35.5t-53.5 -89.5q0 -79 154 -105q86 -14 133 -49t47 -86q0 -66 -62 -110.5t-163 -44.5q-59 0 -110 21l12 28q49 -19 98 -19q88 0 141.5 35.5t53.5 89.5q0 79 -154 105q-86 14 -133 49 t-47 86zM154 632l151 109l18 -24l-151 -109z" />
<glyph unicode="&#x15c;" horiz-adv-x="516" d="M55 520q0 80 55 133t138 58v-30q-71 -5 -117 -49.5t-46 -111.5q0 -30 15.5 -55.5t44.5 -44.5t55.5 -31.5t62.5 -24.5q40 -14 70 -28t61.5 -36t49 -52.5t17.5 -67.5q0 -80 -55 -133.5t-138 -58.5v30q71 5 117 50t46 112q0 30 -15.5 55.5t-44.5 44.5t-55.5 31.5t-62.5 24.5 q-40 14 -70 28t-61.5 36t-49 52.5t-17.5 67.5zM59 106l28 12q41 -93 151 -100v-30q-132 7 -179 118zM169 777l89 115l90 -115l-24 -18l-66 83l-65 -83zM278 681v30q61 -3 108.5 -32.5t70.5 -84.5l-28 -12q-41 92 -151 99z" />
<glyph unicode="&#x15d;" horiz-adv-x="464" d="M50 388q0 66 62 110.5t163 44.5q59 0 110 -21l-12 -28q-49 19 -98 19q-88 0 -141.5 -35.5t-53.5 -89.5q0 -79 154 -105q86 -14 133 -49t47 -86q0 -66 -62 -110.5t-163 -44.5q-59 0 -110 21l12 28q49 -19 98 -19q88 0 141.5 35.5t53.5 89.5q0 79 -154 105q-86 14 -133 49 t-47 86zM143 626l89 115l90 -115l-24 -18l-66 83l-65 -83z" />
<glyph unicode="&#x15e;" horiz-adv-x="516" d="M55 520q0 80 55 133t138 58v-30q-71 -5 -117 -49.5t-46 -111.5q0 -30 15.5 -55.5t44.5 -44.5t55.5 -31.5t62.5 -24.5q40 -14 70 -28t61.5 -36t49 -52.5t17.5 -67.5q0 -78 -53 -131t-134 -60l-3 -10q36 -7 36 -41q0 -25 -18 -37.5t-43 -12.5q-17 0 -32 6l10 28q9 -4 23 -4 q30 0 30 20q0 10 -32 10h-13l17 70h4q76 0 127 45.5t51 116.5q0 30 -15.5 55.5t-44.5 44.5t-55.5 31.5t-62.5 24.5q-40 14 -70 28t-61.5 36t-49 52.5t-17.5 67.5zM59 106l28 12q36 -83 132 -98l-8 -29q-111 17 -152 115zM278 681v30q61 -3 108.5 -32.5t70.5 -84.5l-28 -12 q-41 92 -151 99z" />
<glyph unicode="&#x15f;" horiz-adv-x="464" d="M50 388q0 66 62 110.5t163 44.5q59 0 110 -21l-12 -28q-49 19 -98 19q-88 0 -141.5 -35.5t-53.5 -89.5q0 -79 154 -105q86 -14 133 -49t47 -86q0 -55 -44.5 -96.5t-120.5 -53.5l-6 -19q36 -7 36 -41q0 -25 -18 -37.5t-43 -12.5q-17 0 -32 6l10 28q9 -4 23 -4q30 0 30 20 q0 10 -32 10h-13l12 46q-11 -1 -27 -1q-59 0 -110 21l12 28q49 -19 98 -19q88 0 141.5 35.5t53.5 89.5q0 79 -154 105q-86 14 -133 49t-47 86z" />
<glyph unicode="&#x160;" horiz-adv-x="516" d="M55 520q0 80 55 133t138 58v-30q-71 -5 -117 -49.5t-46 -111.5q0 -30 15.5 -55.5t44.5 -44.5t55.5 -31.5t62.5 -24.5q40 -14 70 -28t61.5 -36t49 -52.5t17.5 -67.5q0 -80 -55 -133.5t-138 -58.5v30q71 5 117 50t46 112q0 30 -15.5 55.5t-44.5 44.5t-55.5 31.5t-62.5 24.5 q-40 14 -70 28t-61.5 36t-49 52.5t-17.5 67.5zM59 106l28 12q41 -93 151 -100v-30q-132 7 -179 118zM169 874l24 18l65 -83l66 83l24 -18l-90 -115zM278 681v30q61 -3 108.5 -32.5t70.5 -84.5l-28 -12q-41 92 -151 99z" />
<glyph unicode="&#x161;" horiz-adv-x="464" d="M50 388q0 66 62 110.5t163 44.5q59 0 110 -21l-12 -28q-49 19 -98 19q-88 0 -141.5 -35.5t-53.5 -89.5q0 -79 154 -105q86 -14 133 -49t47 -86q0 -66 -62 -110.5t-163 -44.5q-59 0 -110 21l12 28q49 -19 98 -19q88 0 141.5 35.5t53.5 89.5q0 79 -154 105q-86 14 -133 49 t-47 86zM143 723l24 18l65 -83l66 83l24 -18l-90 -115z" />
<glyph unicode="&#x162;" horiz-adv-x="566" d="M50 670v30h466v-30h-466zM253 -50h60v-70q0 -58 -47 -75l-10 28q27 9 27 47v15h-30v55zM268 0v640h30v-640h-30z" />
<glyph unicode="&#x163;" horiz-adv-x="296" d="M21 506v30h45v174h30v-522q0 -78 42.5 -118.5t110.5 -40.5q14 0 23 1l4 -30q-9 -1 -27 -1q-81 0 -132 48t-51 141v318h-45zM126 506v30h128v-30h-128zM139 -50h60v-70q0 -58 -47 -75l-10 28q27 9 27 47v15h-30v55z" />
<glyph unicode="&#x164;" horiz-adv-x="566" d="M50 670v30h466v-30h-466zM194 874l24 18l65 -83l66 83l24 -18l-90 -115zM268 0v640h30v-640h-30z" />
<glyph unicode="&#x165;" horiz-adv-x="296" d="M21 506v30h45v174h30v-522q0 -78 42.5 -118.5t110.5 -40.5q14 0 23 1l4 -30q-9 -1 -27 -1q-81 0 -132 48t-51 141v318h-45zM126 506v30h128v-30h-128zM166 695v55h60v-70q0 -58 -47 -75l-10 28q27 9 27 47v15h-30z" />
<glyph unicode="&#x166;" horiz-adv-x="566" d="M50 670v30h466v-30h-466zM153 446v30h260v-30h-260zM268 0v416h30v-416h-30zM268 506v134h30v-134h-30z" />
<glyph unicode="&#x167;" horiz-adv-x="311" d="M-34 355v30h260v-30h-260zM36 506v30h45v174h30v-295h-30v91h-45zM81 188v137h30v-137q0 -78 42.5 -118.5t110.5 -40.5q14 0 23 1l4 -30q-9 -1 -27 -1q-81 0 -132 48t-51 141zM141 506v30h128v-30h-128z" />
<glyph unicode="&#x168;" horiz-adv-x="558" d="M66 193v507h30v-507q0 -72 48.5 -120t119.5 -53v-30q-83 5 -140.5 61.5t-57.5 141.5zM161 812q25 47 70 47q29 0 57 -22q19 -15 38 -15q30 0 47 35l24 -18q-26 -47 -71 -47q-28 0 -56 21q-21 16 -39 16q-30 0 -46 -35zM294 -10v30q70 5 119 53t49 120v507h30v-507 q0 -85 -57.5 -141.5t-140.5 -61.5z" />
<glyph unicode="&#x169;" horiz-adv-x="538" d="M60 193v343h30v-343q0 -72 47 -120t117 -53v-30q-82 5 -138 61.5t-56 141.5zM155 661q25 47 70 47q29 0 57 -22q19 -15 38 -15q30 0 47 35l24 -18q-26 -47 -71 -47q-28 0 -56 21q-21 16 -39 16q-30 0 -46 -35zM284 -10v30q70 5 117 53t47 120v343h30v-343 q0 -85 -56 -141.5t-138 -61.5z" />
<glyph unicode="&#x16a;" horiz-adv-x="558" d="M66 193v507h30v-507q0 -72 48.5 -120t119.5 -53v-30q-83 5 -140.5 61.5t-57.5 141.5zM149 811v30h260v-30h-260zM294 -10v30q70 5 119 53t49 120v507h30v-507q0 -85 -57.5 -141.5t-140.5 -61.5z" />
<glyph unicode="&#x16b;" horiz-adv-x="538" d="M60 193v343h30v-343q0 -72 47 -120t117 -53v-30q-82 5 -138 61.5t-56 141.5zM143 660v30h260v-30h-260zM284 -10v30q70 5 117 53t47 120v343h30v-343q0 -85 -56 -141.5t-138 -61.5z" />
<glyph unicode="&#x16c;" horiz-adv-x="558" d="M66 193v507h30v-507q0 -72 48.5 -120t119.5 -53v-30q-83 5 -140.5 61.5t-57.5 141.5zM179 871h30q0 -27 19 -43.5t51 -16.5t51 16.5t19 43.5h30q0 -38 -28 -64t-72 -26t-72 26t-28 64zM294 -10v30q70 5 119 53t49 120v507h30v-507q0 -85 -57.5 -141.5t-140.5 -61.5z" />
<glyph unicode="&#x16d;" horiz-adv-x="538" d="M60 193v343h30v-343q0 -72 47 -120t117 -53v-30q-82 5 -138 61.5t-56 141.5zM173 720h30q0 -27 19 -43.5t51 -16.5t51 16.5t19 43.5h30q0 -38 -28 -64t-72 -26t-72 26t-28 64zM284 -10v30q70 5 117 53t47 120v343h30v-343q0 -85 -56 -141.5t-138 -61.5z" />
<glyph unicode="&#x16e;" horiz-adv-x="558" d="M66 193v507h30v-507q0 -72 48.5 -120t119.5 -53v-30q-83 5 -140.5 61.5t-57.5 141.5zM212 826q0 24 14.5 42t37.5 23v-32q-22 -10 -22 -33q0 -24 22 -34v-31q-23 5 -37.5 23t-14.5 42zM294 -10v30q70 5 119 53t49 120v507h30v-507q0 -85 -57.5 -141.5t-140.5 -61.5z M294 761v31q22 10 22 34q0 23 -22 33v32q22 -5 37 -23t15 -42t-15 -42t-37 -23z" />
<glyph unicode="&#x16f;" horiz-adv-x="538" d="M60 193v343h30v-343q0 -72 47 -120t117 -53v-30q-82 5 -138 61.5t-56 141.5zM206 675q0 24 14.5 42t37.5 23v-32q-22 -10 -22 -33q0 -24 22 -34v-31q-23 5 -37.5 23t-14.5 42zM284 -10v30q70 5 117 53t47 120v343h30v-343q0 -85 -56 -141.5t-138 -61.5zM288 610v31 q22 10 22 34q0 23 -22 33v32q22 -5 37 -23t15 -42t-15 -42t-37 -23z" />
<glyph unicode="&#x170;" horiz-adv-x="558" d="M66 193v507h30v-507q0 -72 48.5 -120t119.5 -53v-30q-83 5 -140.5 61.5t-57.5 141.5zM175 783l151 109l18 -24l-151 -109zM294 -10v30q70 5 119 53t49 120v507h30v-507q0 -85 -57.5 -141.5t-140.5 -61.5zM297 783l151 109l18 -24l-151 -109z" />
<glyph unicode="&#x171;" horiz-adv-x="538" d="M60 193v343h30v-343q0 -72 47 -120t117 -53v-30q-82 5 -138 61.5t-56 141.5zM154 632l151 109l18 -24l-151 -109zM276 632l151 109l18 -24l-151 -109zM284 -10v30q70 5 117 53t47 120v343h30v-343q0 -85 -56 -141.5t-138 -61.5z" />
<glyph unicode="&#x172;" horiz-adv-x="558" d="M66 193v507h30v-507q0 -72 48.5 -120t119.5 -53v-30q-83 5 -140.5 61.5t-57.5 141.5zM231 -95q0 41 62 73l14 -26q-46 -24 -46 -47q0 -17 21 -17q14 0 30 11l16 -26q-24 -15 -46 -15q-23 0 -37 13t-14 34zM294 -10v30q70 5 119 53t49 120v507h30v-507q0 -85 -57.5 -141.5 t-140.5 -61.5z" />
<glyph unicode="&#x173;" horiz-adv-x="538" d="M60 193v343h30v-343q0 -72 47 -120t117 -53v-30q-82 5 -138 61.5t-56 141.5zM221 -95q0 41 62 73l14 -26q-46 -24 -46 -47q0 -17 21 -17q14 0 30 11l16 -26q-24 -15 -46 -15q-23 0 -37 13t-14 34zM284 -10v30q70 5 117 53t47 120v343h30v-343q0 -85 -56 -141.5 t-138 -61.5z" />
<glyph unicode="&#x174;" horiz-adv-x="773" d="M50 696l28 8l199 -681l-15 -53zM277 126l79 270l15 -52l-79 -269zM297 777l89 115l90 -115l-24 -18l-66 83l-65 -83zM299 696l28 8l59 -204l60 204l28 -8l-73 -248l125 -425l-15 -53zM526 126l169 578l28 -8l-182 -621z" />
<glyph unicode="&#x175;" horiz-adv-x="778" d="M50 531l28 10l201 -520l-16 -41zM279 103l78 202l16 -41l-78 -202zM301 626l89 115l90 -115l-24 -18l-66 83l-65 -83zM302 531l28 10l59 -153l59 153l28 -10l-71 -184l126 -326l-16 -41zM531 103l169 438l28 -10l-181 -469z" />
<glyph unicode="&#x176;" horiz-adv-x="558" d="M50 692l26 16l218 -353v-355h-30v345zM190 777l89 115l90 -115l-24 -18l-66 83l-65 -83zM297 408l185 300l26 -16l-193 -313z" />
<glyph unicode="&#x177;" horiz-adv-x="542" d="M60 186v350h30v-352q0 -78 56 -126t131 -48t139 52v-39q-64 -43 -138 -43q-82 0 -150 55.5t-68 150.5zM129 -225l20 22q62 -60 128 -60q74 0 121.5 60.5t47.5 142.5v596h30v-596q0 -94 -55.5 -163.5t-143.5 -69.5q-78 0 -148 68zM179 626l89 115l90 -115l-24 -18l-66 83 l-65 -83z" />
<glyph unicode="&#x178;" horiz-adv-x="558" d="M50 692l26 16l218 -353v-355h-30v345zM187 801v50h50v-50h-50zM297 408l185 300l26 -16l-193 -313zM322 801v50h50v-50h-50z" />
<glyph unicode="&#x179;" horiz-adv-x="550" d="M55 0l406 700h34l-406 -700h-34zM58 670v30h368l-18 -30h-350zM124 0l18 30h350v-30h-368zM191 783l151 109l18 -24l-151 -109z" />
<glyph unicode="&#x17a;" horiz-adv-x="534" d="M46 0l403 536h39l-403 -536h-39zM50 506v30h361l-23 -30h-338zM123 0l23 30h338v-30h-361zM193 632l151 109l18 -24l-151 -109z" />
<glyph unicode="&#x17b;" horiz-adv-x="550" d="M52 0l406 700h34l-406 -700h-34zM55 670v30h368l-18 -30h-350zM121 0l18 30h350v-30h-368zM247 801v50h50v-50h-50z" />
<glyph unicode="&#x17c;" horiz-adv-x="534" d="M46 0l403 536h39l-403 -536h-39zM50 506v30h361l-23 -30h-338zM123 0l23 30h338v-30h-361zM242 650v50h50v-50h-50z" />
<glyph unicode="&#x17d;" horiz-adv-x="550" d="M52 0l406 700h34l-406 -700h-34zM55 670v30h368l-18 -30h-350zM121 0l18 30h350v-30h-368zM183 874l24 18l65 -83l66 83l24 -18l-90 -115z" />
<glyph unicode="&#x17e;" horiz-adv-x="534" d="M46 0l403 536h39l-403 -536h-39zM50 506v30h361l-23 -30h-338zM123 0l23 30h338v-30h-361zM178 723l24 18l65 -83l66 83l24 -18l-90 -115z" />
<glyph unicode="&#x17f;" horiz-adv-x="150" d="M60 0v611q0 64 46.5 106.5t106.5 42.5v-30q-48 0 -85.5 -34t-37.5 -85v-611h-30z" />
<glyph unicode="&#x192;" horiz-adv-x="302" d="M-26 -203q68 0 115 46t47 128v465h-115v30h115v176q0 94 56 148t136 54v-30q-68 0 -115 -46t-47 -128v-174h115v-30h-115v-467q0 -94 -56 -148t-136 -54v30z" />
<glyph unicode="&#x1fc;" horiz-adv-x="748" d="M50 7l347 693h296v-30h-278l-237 -472h189v-30h-204l-87 -175zM389 783l151 109l18 -24l-151 -109zM397 0v568l30 60v-222h200v-30h-200v-346h266v-30h-296z" />
<glyph unicode="&#x1fd;" horiz-adv-x="924" d="M55 187q0 87 62 141t150 54q80 0 145 -45v-36q-60 51 -145 51q-76 0 -129 -45.5t-53 -119.5t53.5 -120.5t128.5 -46.5q85 0 145 46v-37q-60 -39 -145 -39q-87 0 -149.5 55t-62.5 142zM108 472q77 74 184 74q62 0 111.5 -38t62.5 -108q32 74 93 110t121 36 q102 0 153 -69.5t51 -182.5h-380q0 10 4 30h344q0 74 -43 133t-129 59q-70 0 -129.5 -50t-74.5 -142q-4 -24 -4 -54v-9q3 -96 80 -165.5t221 -69.5q19 0 61 4v-30q-44 -4 -64 -4q-110 0 -186 41.5t-112 109.5v-147h-30v340q0 92 -45.5 134t-104.5 42q-96 0 -162 -64z M407 632l151 109l18 -24l-151 -109z" />
<glyph unicode="&#x1fe;" horiz-adv-x="818" d="M50 13l94 94q-94 104 -94 243q0 144 100 248.5t244 110.5v-30q-132 -6 -223 -101.5t-91 -227.5q0 -127 85 -222l465 465q-88 80 -206 86v30q128 -4 227 -95l95 95l22 -22l-95 -95q95 -103 95 -242q0 -144 -100 -248.5t-244 -110.5v30q132 6 223 101.5t91 227.5 q0 127 -86 221l-465 -465q89 -81 207 -85v-30q-130 4 -228 94l-94 -94zM325 783l151 109l18 -24l-151 -109z" />
<glyph unicode="&#x1ff;" horiz-adv-x="656" d="M50 11l71 71q-71 81 -71 186q0 111 76.5 191t186.5 86v-30q-98 -6 -165.5 -77t-67.5 -170q0 -95 62 -165l350 351q-64 57 -149 61v30q95 -4 169 -70l72 72l22 -22l-72 -72q72 -78 72 -185q0 -111 -76.5 -191t-186.5 -86v29q98 6 165.5 77.5t67.5 170.5q0 92 -62 164 l-350 -351q63 -55 149 -61v-29q-99 5 -170 69l-71 -71zM247 632l151 109l18 -24l-151 -109z" />
<glyph unicode="&#x218;" horiz-adv-x="516" d="M55 520q0 80 55 133t138 58v-30q-71 -5 -117 -49.5t-46 -111.5q0 -30 15.5 -55.5t44.5 -44.5t55.5 -31.5t62.5 -24.5q40 -14 70 -28t61.5 -36t49 -52.5t17.5 -67.5q0 -80 -55 -133.5t-138 -58.5v30q71 5 117 50t46 112q0 30 -15.5 55.5t-44.5 44.5t-55.5 31.5t-62.5 24.5 q-40 14 -70 28t-61.5 36t-49 52.5t-17.5 67.5zM59 106l28 12q41 -93 151 -100v-30q-132 7 -179 118zM228 -50h60v-70q0 -58 -47 -75l-10 28q27 9 27 47v15h-30v55zM278 681v30q61 -3 108.5 -32.5t70.5 -84.5l-28 -12q-41 92 -151 99z" />
<glyph unicode="&#x219;" horiz-adv-x="464" d="M50 388q0 66 62 110.5t163 44.5q59 0 110 -21l-12 -28q-49 19 -98 19q-88 0 -141.5 -35.5t-53.5 -89.5q0 -79 154 -105q86 -14 133 -49t47 -86q0 -66 -62 -110.5t-163 -44.5q-59 0 -110 21l12 28q49 -19 98 -19q88 0 141.5 35.5t53.5 89.5q0 79 -154 105q-86 14 -133 49 t-47 86zM203 -50h60v-70q0 -58 -47 -75l-10 28q27 9 27 47v15h-30v55z" />
<glyph unicode="&#x259;" horiz-adv-x="562" d="M50 258v15h402q2 -15 0 -30h-371q3 -95 52.5 -159t143.5 -64q33 0 67 14t66 41.5t52 75.5t20 107q0 109 -58 183.5t-157 74.5q-79 0 -138 -50l-20 22q67 58 158 58q113 0 179 -83t66 -205q0 -67 -23 -121t-59.5 -84.5t-76 -46.5t-76.5 -16q-112 0 -169.5 77.5 t-57.5 190.5z" />
<glyph unicode="&#x2c6;" horiz-adv-x="319" d="M70 626l89 115l90 -115l-24 -18l-66 83l-65 -83z" />
<glyph unicode="&#x2c7;" horiz-adv-x="319" d="M70 723l24 18l65 -83l66 83l24 -18l-90 -115z" />
<glyph unicode="&#x2d8;" horiz-adv-x="340" d="M70 720h30q0 -27 19 -43.5t51 -16.5t51 16.5t19 43.5h30q0 -38 -28 -64t-72 -26t-72 26t-28 64z" />
<glyph unicode="&#x2d9;" horiz-adv-x="190" d="M70 650v50h50v-50h-50z" />
<glyph unicode="&#x2da;" horiz-adv-x="304" d="M85 675q0 24 14.5 42t37.5 23v-32q-22 -10 -22 -33q0 -24 22 -34v-31q-23 5 -37.5 23t-14.5 42zM167 610v31q22 10 22 34q0 23 -22 33v32q22 -5 37 -23t15 -42t-15 -42t-37 -23z" />
<glyph unicode="&#x2db;" horiz-adv-x="313" d="M131 -77q0 41 62 73l14 -26q-46 -24 -46 -47q0 -17 21 -17q13 0 30 11l16 -26q-24 -15 -46 -15q-23 0 -37 13t-14 34z" />
<glyph unicode="&#x2dc;" horiz-adv-x="358" d="M61 661q25 47 70 47q29 0 57 -22q20 -15 38 -15q30 0 47 35l24 -18q-26 -47 -71 -47q-28 0 -56 21q-21 16 -39 16q-30 0 -46 -35z" />
<glyph unicode="&#x2dd;" horiz-adv-x="411" d="M70 632l151 109l18 -24l-151 -109zM192 632l151 109l18 -24l-151 -109z" />
<glyph unicode="&#x1e80;" horiz-adv-x="773" d="M50 696l28 8l199 -681l-15 -53zM277 126l79 270l15 -52l-79 -269zM299 696l28 8l59 -204l60 204l28 -8l-73 -248l125 -425l-15 -53zM302 868l18 24l151 -109l-18 -24zM526 126l169 578l28 -8l-182 -621z" />
<glyph unicode="&#x1e81;" horiz-adv-x="778" d="M50 531l28 10l201 -520l-16 -41zM279 103l78 202l16 -41l-78 -202zM302 531l28 10l59 -153l59 153l28 -10l-71 -184l126 -326l-16 -41zM306 717l18 24l151 -109l-18 -24zM531 103l169 438l28 -10l-181 -469z" />
<glyph unicode="&#x1e82;" horiz-adv-x="773" d="M50 696l28 8l199 -681l-15 -53zM277 126l79 270l15 -52l-79 -269zM299 696l28 8l59 -204l60 204l28 -8l-73 -248l125 -425l-15 -53zM302 783l151 109l18 -24l-151 -109zM526 126l169 578l28 -8l-182 -621z" />
<glyph unicode="&#x1e83;" horiz-adv-x="778" d="M50 531l28 10l201 -520l-16 -41zM279 103l78 202l16 -41l-78 -202zM302 531l28 10l59 -153l59 153l28 -10l-71 -184l126 -326l-16 -41zM306 632l151 109l18 -24l-151 -109zM531 103l169 438l28 -10l-181 -469z" />
<glyph unicode="&#x1e84;" horiz-adv-x="773" d="M50 696l28 8l199 -681l-15 -53zM277 126l79 270l15 -52l-79 -269zM294 801v50h50v-50h-50zM299 696l28 8l59 -204l60 204l28 -8l-73 -248l125 -425l-15 -53zM429 801v50h50v-50h-50zM526 126l169 578l28 -8l-182 -621z" />
<glyph unicode="&#x1e85;" horiz-adv-x="778" d="M50 531l28 10l201 -520l-16 -41zM279 103l78 202l16 -41l-78 -202zM298 650v50h50v-50h-50zM302 531l28 10l59 -153l59 153l28 -10l-71 -184l126 -326l-16 -41zM433 650v50h50v-50h-50zM531 103l169 438l28 -10l-181 -469z" />
<glyph unicode="&#x1ef2;" horiz-adv-x="558" d="M50 692l26 16l218 -353v-355h-30v345zM195 868l18 24l151 -109l-18 -24zM297 408l185 300l26 -16l-193 -313z" />
<glyph unicode="&#x1ef3;" horiz-adv-x="542" d="M60 186v350h30v-352q0 -78 56 -126t131 -48t139 52v-39q-64 -43 -138 -43q-82 0 -150 55.5t-68 150.5zM129 -225l20 22q62 -60 128 -60q74 0 121.5 60.5t47.5 142.5v596h30v-596q0 -94 -55.5 -163.5t-143.5 -69.5q-78 0 -148 68zM184 717l18 24l151 -109l-18 -24z" />
<glyph unicode="&#x2000;" horiz-adv-x="549" />
<glyph unicode="&#x2001;" horiz-adv-x="1098" />
<glyph unicode="&#x2002;" horiz-adv-x="549" />
<glyph unicode="&#x2003;" horiz-adv-x="1098" />
<glyph unicode="&#x2004;" horiz-adv-x="366" />
<glyph unicode="&#x2005;" horiz-adv-x="274" />
<glyph unicode="&#x2006;" horiz-adv-x="183" />
<glyph unicode="&#x2007;" horiz-adv-x="183" />
<glyph unicode="&#x2008;" horiz-adv-x="137" />
<glyph unicode="&#x2009;" horiz-adv-x="219" />
<glyph unicode="&#x200a;" horiz-adv-x="61" />
<glyph unicode="&#x2010;" horiz-adv-x="360" d="M50 294v30h260v-30h-260z" />
<glyph unicode="&#x2011;" horiz-adv-x="360" d="M50 294v30h260v-30h-260z" />
<glyph unicode="&#x2012;" horiz-adv-x="360" d="M50 294v30h260v-30h-260z" />
<glyph unicode="&#x2013;" horiz-adv-x="717" d="M50 294v30h617v-30h-617z" />
<glyph unicode="&#x2014;" horiz-adv-x="946" d="M50 294v30h846v-30h-846z" />
<glyph unicode="&#x2018;" horiz-adv-x="184" d="M62 524v85q0 71 47 88l10 -28q-27 -9 -27 -60v-25h30v-60h-60z" />
<glyph unicode="&#x2019;" horiz-adv-x="184" d="M62 640v60h60v-85q0 -71 -47 -88l-10 28q27 9 27 60v25h-30z" />
<glyph unicode="&#x201a;" horiz-adv-x="184" d="M62 70v60h60v-85q0 -71 -47 -88l-10 28q27 9 27 60v25h-30z" />
<glyph unicode="&#x201c;" horiz-adv-x="304" d="M62 524v85q0 71 47 88l10 -28q-27 -9 -27 -60v-25h30v-60h-60zM182 524v85q0 71 47 88l10 -28q-27 -9 -27 -60v-25h30v-60h-60z" />
<glyph unicode="&#x201d;" horiz-adv-x="304" d="M62 640v60h60v-85q0 -71 -47 -88l-10 28q27 9 27 60v25h-30zM182 640v60h60v-85q0 -71 -47 -88l-10 28q27 9 27 60v25h-30z" />
<glyph unicode="&#x201e;" horiz-adv-x="304" d="M62 70v60h60v-85q0 -71 -47 -88l-10 28q27 9 27 60v25h-30zM182 70v60h60v-85q0 -71 -47 -88l-10 28q27 9 27 60v25h-30z" />
<glyph unicode="&#x2020;" horiz-adv-x="553" d="M55 685v30h205v178h30v-178h208v-30h-208v-805h-30v805h-205z" />
<glyph unicode="&#x2021;" horiz-adv-x="553" d="M55 58v30h205v597h-205v30h205v178h30v-178h208v-30h-208v-597h208v-30h-208v-178h-30v178h-205z" />
<glyph unicode="&#x2022;" horiz-adv-x="260" d="M50 300q0 33 23.5 56.5t56.5 23.5t56.5 -23.5t23.5 -56.5t-23.5 -56.5t-56.5 -23.5t-56.5 23.5t-23.5 56.5z" />
<glyph unicode="&#x2026;" horiz-adv-x="612" d="M72 0v60h60v-60h-60zM276 0v60h60v-60h-60zM480 0v60h60v-60h-60z" />
<glyph unicode="&#x202f;" horiz-adv-x="219" />
<glyph unicode="&#x2030;" horiz-adv-x="701" d="M60 7l361 700l26 -14l-361 -700zM60 623q0 30 19 52.5t48 27.5v-30q-37 -12 -37 -50q0 -18 10 -31.5t27 -18.5v-31q-29 5 -48 28t-19 53zM157 542v31q16 5 26.5 18.5t10.5 31.5t-10.5 31.5t-26.5 18.5v30q29 -5 48 -27.5t19 -52.5t-19 -53t-48 -28zM283 76q0 30 19 52.5 t48 27.5v-30q-37 -12 -37 -50q0 -18 10 -31.5t27 -18.5v-30q-29 5 -48 27.5t-19 52.5zM380 -4v30q16 5 26.5 18.5t10.5 31.5t-10.5 31.5t-26.5 18.5v30q29 -5 48 -27.5t19 -52.5t-19 -52.5t-48 -27.5zM487 76q0 30 19 52.5t48 27.5v-30q-37 -12 -37 -50q0 -18 10 -31.5 t27 -18.5v-30q-29 5 -48 27.5t-19 52.5zM584 -4v30q16 5 26.5 18.5t10.5 31.5t-10.5 31.5t-26.5 18.5v30q29 -5 48 -27.5t19 -52.5t-19 -52.5t-48 -27.5z" />
<glyph unicode="&#x2039;" horiz-adv-x="287" d="M50 270l169 132l18 -24l-137 -108l137 -107l-18 -24z" />
<glyph unicode="&#x203a;" horiz-adv-x="287" d="M50 163l137 107l-137 108l18 24l169 -132l-169 -131z" />
<glyph unicode="&#x205f;" horiz-adv-x="274" />
<glyph unicode="&#x20ac;" horiz-adv-x="547" d="M50 289v30h340v-30h-340zM50 377v30h340v-30h-340zM93 259h32q25 -101 102 -166.5t196 -65.5q39 0 72 3l2 -30q-33 -3 -74 -3q-133 0 -218 74t-112 188zM93 437q25 115 110.5 191t220.5 76q40 0 73 -3l-2 -30q-33 3 -71 3q-121 0 -198 -67t-102 -170h-31z" />
<glyph unicode="&#x2117;" horiz-adv-x="850" d="M60 350q0 147 102 252.5t248 111.5v-30q-134 -6 -227 -102.5t-93 -231.5t93 -232t227 -103v-29q-146 6 -248 111.5t-102 252.5zM336 160v385q10 1 30 1v-386h-30zM396 301v29q60 4 94.5 31t34.5 62q0 34 -34.5 61t-94.5 31v30q77 -6 118 -40.5t41 -81.5t-41 -81.5 t-118 -40.5zM440 -14v29q134 6 227 103t93 232t-93 231.5t-227 102.5v30q146 -6 248 -111.5t102 -252.5t-102 -252.5t-248 -111.5z" />
<glyph unicode="&#x2122;" horiz-adv-x="617" d="M60 670v30h229v-30h-229zM158 470v170h30v-170h-30zM321 470v127l30 -56v-71h-30zM321 660v64l102 -190l42 78v-64l-42 -78zM495 470v198l30 56v-254h-30z" />
<glyph unicode="&#x2212;" horiz-adv-x="460" d="M50 294v30h360v-30h-360z" />
<glyph unicode="&#xe000;" horiz-adv-x="545" d="M0 0v545h545v-545h-545z" />
<glyph unicode="&#xf628;" horiz-adv-x="681" d="M60 459q0 30 19 52.5t48 27.5v-30q-37 -12 -37 -50q0 -18 10 -31.5t27 -18.5v-30q-29 5 -48 27.5t-19 52.5zM62 8l337 536l26 -16l-337 -536zM157 379v30q16 5 26.5 18.5t10.5 31.5t-10.5 31.5t-26.5 18.5v30q29 -5 48 -27.5t19 -52.5t-19 -52.5t-48 -27.5zM263 76 q0 30 19 52.5t48 27.5v-30q-37 -12 -37 -50q0 -18 10 -31.5t27 -18.5v-30q-29 5 -48 27.5t-19 52.5zM360 -4v30q16 5 26.5 18.5t10.5 31.5t-10.5 31.5t-26.5 18.5v30q29 -5 48 -27.5t19 -52.5t-19 -52.5t-48 -27.5zM467 76q0 30 19 52.5t48 27.5v-30q-37 -12 -37 -50 q0 -18 10 -31.5t27 -18.5v-30q-29 5 -48 27.5t-19 52.5zM564 -4v30q16 5 26.5 18.5t10.5 31.5t-10.5 31.5t-26.5 18.5v30q29 -5 48 -27.5t19 -52.5t-19 -52.5t-48 -27.5z" />
<glyph unicode="&#xf642;" horiz-adv-x="487" d="M60 459q0 30 19 52.5t48 27.5v-30q-37 -12 -37 -50q0 -18 10 -31.5t27 -18.5v-30q-29 5 -48 27.5t-19 52.5zM62 8l337 536l26 -16l-337 -536zM157 379v30q16 5 26.5 18.5t10.5 31.5t-10.5 31.5t-26.5 18.5v30q29 -5 48 -27.5t19 -52.5t-19 -52.5t-48 -27.5zM263 76 q0 30 19 52.5t48 27.5v-30q-37 -12 -37 -50q0 -18 10 -31.5t27 -18.5v-30q-29 5 -48 27.5t-19 52.5zM360 -4v30q16 5 26.5 18.5t10.5 31.5t-10.5 31.5t-26.5 18.5v30q29 -5 48 -27.5t19 -52.5t-19 -52.5t-48 -27.5z" />
<glyph unicode="&#xf64e;" horiz-adv-x="537" d="M50 206v30h340v-30h-340zM50 296v30h340v-30h-340zM99 356q31 83 114 135.5t210 52.5q31 0 64 -3l-2 -30q-33 3 -62 3q-112 0 -186.5 -44t-105.5 -114h-32zM100 176h34q31 -69 104.5 -111t184.5 -42q29 0 62 3l2 -30q-33 -3 -64 -3q-125 0 -208 51t-115 132z" />
<glyph unicode="&#xf652;" horiz-adv-x="553" d="M50 526l22 19l203 -253l206 255l22 -21l-213 -263v-19h-30v19zM115 96v30h320v-30h-320zM115 184v30h320v-30h-320zM260 0v66h30v-66h-30z" />
<glyph unicode="&#xf653;" horiz-adv-x="472" d="M58 1l4 30q43 -7 86 -7q103 0 168.5 39t65.5 92q0 43 -37.5 75t-98.5 39l-40 5q-72 9 -109 41.5t-37 82.5q0 47 37 84.5t102 51.5v118h30v-113q22 2 36 2q19 0 55 -4l-4 -30q-36 4 -51 4q-79 0 -127 -33t-48 -80q0 -37 31.5 -61.5t88.5 -32.5l39 -5q77 -10 120 -48.5 t43 -95.5q0 -53 -50 -96t-133 -58v-112h-30v108q-24 -3 -51 -3q-47 0 -90 7z" />
<glyph unicode="&#xf66d;" horiz-adv-x="514" d="M63 6l175 466l16 -42l-164 -437zM166 109l11 30h218l-141 375l16 43l207 -551l-27 -13l-44 116h-240zM170 720h30q0 -27 19 -43.5t51 -16.5t51 16.5t19 43.5h30q0 -38 -28 -64t-72 -26t-72 26t-28 64z" />
<glyph unicode="&#xf66e;" horiz-adv-x="514" d="M63 6l175 466l16 -42l-164 -437zM140 660v30h260v-30h-260zM166 109l11 30h218l-141 375l16 43l207 -551l-27 -13l-44 116h-240z" />
<glyph unicode="&#xf66f;" horiz-adv-x="514" d="M50 6l175 466l16 -42l-164 -437zM153 109l11 30h218l-141 375l16 43l207 -551l-13 -6l7 -12q-46 -24 -46 -47q0 -17 21 -17q13 0 30 11l16 -26q-24 -15 -46 -15q-23 0 -37 13t-14 34q0 37 49 66l-38 102h-240z" />
<glyph unicode="&#xf670;" horiz-adv-x="748" d="M50 8l347 528h296v-30h-279l-226 -345h179v-30h-199l-92 -139zM394 632l151 109l18 -24l-151 -109zM397 0v424l30 45v-145h200v-30h-200v-264h266v-30h-296z" />
<glyph unicode="&#xf671;" horiz-adv-x="503" d="M50 268q0 112 89.5 194t249.5 82q31 0 64 -3l-2 -30q-33 3 -62 3q-146 0 -227.5 -73.5t-81.5 -172.5t81.5 -172t227.5 -73q29 0 62 3l2 -30q-33 -3 -64 -3q-160 0 -249.5 81.5t-89.5 193.5zM221 632l151 109l18 -24l-151 -109z" />
<glyph unicode="&#xf672;" horiz-adv-x="503" d="M50 268q0 112 89.5 194t249.5 82q31 0 64 -3l-2 -30q-33 3 -62 3q-146 0 -227.5 -73.5t-81.5 -172.5t81.5 -172t227.5 -73q29 0 62 3l2 -30q-33 -3 -64 -3q-160 0 -249.5 81.5t-89.5 193.5zM210 723l24 18l65 -83l66 83l24 -18l-90 -115z" />
<glyph unicode="&#xf673;" horiz-adv-x="503" d="M50 268q0 112 89.5 194t249.5 82q31 0 64 -3l-2 -30q-33 3 -62 3q-146 0 -227.5 -73.5t-81.5 -172.5t81.5 -172t227.5 -73q29 0 62 3l2 -30q-33 -3 -64 -3q-160 0 -249.5 81.5t-89.5 193.5zM207 626l89 115l90 -115l-24 -18l-66 83l-65 -83z" />
<glyph unicode="&#xf674;" horiz-adv-x="503" d="M50 268q0 112 89.5 194t249.5 82q31 0 64 -3l-2 -30q-33 3 -62 3q-146 0 -227.5 -73.5t-81.5 -172.5t81.5 -172t227.5 -73q29 0 62 3l2 -30q-33 -3 -64 -3q-160 0 -249.5 81.5t-89.5 193.5zM281 650v50h50v-50h-50z" />
<glyph unicode="&#xf675;" horiz-adv-x="532" d="M66 0v540q20 2 30 2v-544q-12 0 -30 2zM121 723l24 18l65 -83l66 83l24 -18l-90 -115zM126 -3v30h17q146 0 227.5 72t81.5 171t-81.5 171.5t-227.5 72.5h-17v30h17q160 0 249.5 -81t89.5 -193q0 -111 -89.5 -192t-249.5 -81h-17z" />
<glyph unicode="&#xf676;" horiz-adv-x="546" d="M-15 270v30h95v240q20 2 30 2v-544q-12 0 -30 2v270h-95zM140 -3v30h17q146 0 227.5 72t81.5 171t-81.5 171.5t-227.5 72.5h-17v30h17q160 0 249.5 -81t89.5 -193q0 -111 -89.5 -192t-249.5 -81h-17zM140 270v30h105v-30h-105z" />
<glyph unicode="&#xf677;" horiz-adv-x="517" d="M66 0v536h30v-536h-30zM126 0v30h336v-30h-336zM126 294v30h270v-30h-270zM126 506v30h336v-30h-336zM164 720h30q0 -27 19 -43.5t51 -16.5t51 16.5t19 43.5h30q0 -38 -28 -64t-72 -26t-72 26t-28 64z" />
<glyph unicode="&#xf678;" horiz-adv-x="517" d="M66 0v536h30v-536h-30zM126 0v30h336v-30h-336zM126 294v30h270v-30h-270zM126 506v30h336v-30h-336zM175 723l24 18l65 -83l66 83l24 -18l-90 -115z" />
<glyph unicode="&#xf679;" horiz-adv-x="517" d="M66 0v536h30v-536h-30zM126 0v30h336v-30h-336zM126 294v30h270v-30h-270zM126 506v30h336v-30h-336zM239 650v50h50v-50h-50z" />
<glyph unicode="&#xf67a;" horiz-adv-x="517" d="M66 0v536h30v-536h-30zM126 0v30h336v-30h-336zM126 294v30h270v-30h-270zM126 506v30h336v-30h-336zM134 660v30h260v-30h-260z" />
<glyph unicode="&#xf67c;" horiz-adv-x="517" d="M66 0v536h30v-536h-30zM126 0v30h336v-30h-81l7 -12q-46 -24 -46 -47q0 -17 21 -17q13 0 30 11l16 -26q-24 -15 -46 -15q-23 0 -37 13t-14 34q0 34 38 59h-224zM126 294v30h270v-30h-270zM126 506v30h336v-30h-336z" />
<glyph unicode="&#xf67d;" horiz-adv-x="513" d="M50 270q0 112 89 193t250 81q31 0 64 -3v-30q-30 3 -64 3q-147 0 -228 -72.5t-81 -171.5t81.5 -171t227.5 -72h4v-30h-4q-160 0 -249.5 81t-89.5 192zM215 720h30q0 -27 19 -43.5t51 -16.5t51 16.5t19 43.5h30q0 -38 -28 -64t-72 -26t-72 26t-28 64zM423 -2v228h30v-226 q-20 -2 -30 -2z" />
<glyph unicode="&#xf67e;" horiz-adv-x="513" d="M50 270q0 112 89 193t250 81q31 0 64 -3v-30q-30 3 -64 3q-147 0 -228 -72.5t-81 -171.5t81.5 -171t227.5 -72h4v-30h-4q-160 0 -249.5 81t-89.5 192zM226 626l89 115l90 -115l-24 -18l-66 83l-65 -83zM423 -2v228h30v-226q-20 -2 -30 -2z" />
<glyph unicode="&#xf67f;" horiz-adv-x="513" d="M50 270q0 112 89 193t250 81q31 0 64 -3v-30q-30 3 -64 3q-147 0 -228 -72.5t-81 -171.5t81.5 -171t227.5 -72h4v-30h-4q-160 0 -249.5 81t-89.5 192zM315 -50h60v-70q0 -58 -47 -75l-10 28q27 9 27 47v15h-30v55zM423 -2v228h30v-226q-20 -2 -30 -2z" />
<glyph unicode="&#xf680;" horiz-adv-x="513" d="M50 270q0 112 89 193t250 81q31 0 64 -3v-30q-30 3 -64 3q-147 0 -228 -72.5t-81 -171.5t81.5 -171t227.5 -72h4v-30h-4q-160 0 -249.5 81t-89.5 192zM290 650v50h50v-50h-50zM423 -2v228h30v-226q-20 -2 -30 -2z" />
<glyph unicode="&#xf681;" horiz-adv-x="528" d="M4 426v30h520v-30h-520zM66 0v396h30v-396h-30zM66 486v50h30v-50h-30zM126 294v30h306v72h30v-396h-30v294h-306zM432 486v50h30v-50h-30z" />
<glyph unicode="&#xf682;" horiz-adv-x="528" d="M66 0v536h30v-536h-30zM126 294v30h306v212h30v-536h-30v294h-306zM175 626l89 115l90 -115l-24 -18l-66 83l-65 -83z" />
<glyph unicode="&#xf683;" d="M-15 720h30q0 -27 19 -43.5t51 -16.5t51 16.5t19 43.5h30q0 -38 -28 -64t-72 -26t-72 26t-28 64zM70 0v536h30v-536h-30z" />
<glyph unicode="&#xf684;" horiz-adv-x="623" d="M70 0v536h30v-536h-30zM215 58l21 23q66 -61 127 -61q60 0 102.5 38.5t57.5 95.5q10 36 10 78v304h30v-313q0 -99 -56.5 -166t-143.5 -67q-80 0 -148 68z" />
<glyph unicode="&#xf685;" d="M-45 660v30h260v-30h-260zM70 0v536h30v-536h-30z" />
<glyph unicode="&#xf686;" d="M22 -59q0 38 48 65v530h30v-536h-9l7 -12q-46 -24 -46 -47q0 -17 21 -17q13 0 30 11l16 -26q-24 -15 -46 -15q-23 0 -37 13t-14 34z" />
<glyph unicode="&#xf687;" d="M-33 661q25 47 70 47q29 0 57 -22q19 -15 38 -15q30 0 47 35l24 -18q-26 -47 -71 -47q-28 0 -56 21q-21 16 -39 16q-30 0 -46 -35zM70 0v536h30v-536h-30z" />
<glyph unicode="&#xf688;" horiz-adv-x="458" d="M50 58l21 23q66 -61 127 -61q60 0 102.5 38.5t57.5 95.5q10 36 10 78v304h30v-313q0 -99 -56.5 -166t-143.5 -67q-80 0 -148 68zM294 626l89 115l90 -115l-24 -18l-66 83l-65 -83z" />
<glyph unicode="&#xf689;" horiz-adv-x="570" d="M66 0v536h30v-536h-30zM126 232v38l376 277l18 -24zM186 238l24 19l310 -244l-18 -24zM263 -50h60v-70q0 -58 -47 -75l-10 28q27 9 27 47v15h-30v55z" />
<glyph unicode="&#xf68a;" horiz-adv-x="474" d="M12 632l151 109l18 -24l-151 -109zM66 0v536h30v-536h-30zM126 0v30h298v-30h-298z" />
<glyph unicode="&#xf68b;" horiz-adv-x="474" d="M66 0v536h30v-536h-30zM126 0v30h298v-30h-298zM156 481v55h60v-70q0 -58 -47 -75l-10 28q27 9 27 47v15h-30z" />
<glyph unicode="&#xf68c;" horiz-adv-x="474" d="M66 0v536h30v-536h-30zM126 0v30h298v-30h-298zM215 -50h60v-70q0 -58 -47 -75l-10 28q27 9 27 47v15h-30v55z" />
<glyph unicode="&#xf68d;" horiz-adv-x="474" d="M66 0v536h30v-536h-30zM126 0v30h298v-30h-298zM217 285v50h50v-50h-50z" />
<glyph unicode="&#xf68e;" horiz-adv-x="549" d="M66 0v464l30 -39v-425h-30zM66 511v48l417 -534v-48zM190 632l151 109l18 -24l-151 -109zM453 111v425h30v-464z" />
<glyph unicode="&#xf68f;" horiz-adv-x="549" d="M66 0v464l30 -39v-425h-30zM66 511v48l417 -534v-48zM185 723l24 18l65 -83l66 83l24 -18l-90 -115zM453 111v425h30v-464z" />
<glyph unicode="&#xf690;" horiz-adv-x="549" d="M66 0v464l30 -39v-425h-30zM66 511v48l417 -534v-48zM244 -50h60v-70q0 -58 -47 -75l-10 28q27 9 27 47v15h-30v55zM453 111v425h30v-464z" />
<glyph unicode="&#xf691;" horiz-adv-x="656" d="M50 268q0 111 76.5 191t186.5 86v-30q-98 -6 -165.5 -77t-67.5 -170t67.5 -170.5t165.5 -77.5v-29q-110 6 -186.5 86t-76.5 191zM228 720h30q0 -27 19 -43.5t51 -16.5t51 16.5t19 43.5h30q0 -38 -28 -64t-72 -26t-72 26t-28 64zM343 -9v29q98 6 165.5 77.5t67.5 170.5 t-67.5 170t-165.5 77v30q110 -6 186.5 -86t76.5 -191t-76.5 -191t-186.5 -86z" />
<glyph unicode="&#xf692;" horiz-adv-x="656" d="M50 268q0 111 76.5 191t186.5 86v-30q-98 -6 -165.5 -77t-67.5 -170t67.5 -170.5t165.5 -77.5v-29q-110 6 -186.5 86t-76.5 191zM207 632l151 109l18 -24l-151 -109zM329 632l151 109l18 -24l-151 -109zM343 -9v29q98 6 165.5 77.5t67.5 170.5t-67.5 170t-165.5 77v30 q110 -6 186.5 -86t76.5 -191t-76.5 -191t-186.5 -86z" />
<glyph unicode="&#xf693;" horiz-adv-x="656" d="M50 268q0 111 76.5 191t186.5 86v-30q-98 -6 -165.5 -77t-67.5 -170t67.5 -170.5t165.5 -77.5v-29q-110 6 -186.5 86t-76.5 191zM198 660v30h260v-30h-260zM343 -9v29q98 6 165.5 77.5t67.5 170.5t-67.5 170t-165.5 77v30q110 -6 186.5 -86t76.5 -191t-76.5 -191 t-186.5 -86z" />
<glyph unicode="&#xf694;" horiz-adv-x="656" d="M50 11l71 71q-71 81 -71 186q0 111 76.5 191t186.5 86v-30q-98 -6 -165.5 -77t-67.5 -170q0 -95 62 -165l350 351q-64 57 -149 61v30q95 -4 169 -70l72 72l22 -22l-72 -72q72 -78 72 -185q0 -111 -76.5 -191t-186.5 -86v29q98 6 165.5 77.5t67.5 170.5q0 92 -62 164 l-350 -351q63 -55 149 -61v-29q-99 5 -170 69l-71 -71zM244 632l151 109l18 -24l-151 -109z" />
<glyph unicode="&#xf695;" horiz-adv-x="428" d="M66 0v537q16 2 30 2v-539h-30zM114 632l151 109l18 -24l-151 -109zM126 204v30q85 2 145.5 36.5t60.5 100.5q0 58 -53 98t-153 41v30q111 -1 173.5 -49t62.5 -120q0 -64 -43 -102.5t-94 -51.5l158 -208l-25 -16l-166 217q-36 -6 -66 -6z" />
<glyph unicode="&#xf696;" horiz-adv-x="428" d="M66 0v537q16 2 30 2v-539h-30zM82 723l24 18l65 -83l66 83l24 -18l-90 -115zM126 204v30q85 2 145.5 36.5t60.5 100.5q0 58 -53 98t-153 41v30q111 -1 173.5 -49t62.5 -120q0 -64 -43 -102.5t-94 -51.5l158 -208l-25 -16l-166 217q-36 -6 -66 -6z" />
<glyph unicode="&#xf697;" horiz-adv-x="428" d="M66 0v537q16 2 30 2v-539h-30zM126 204v30q85 2 145.5 36.5t60.5 100.5q0 58 -53 98t-153 41v30q111 -1 173.5 -49t62.5 -120q0 -64 -43 -102.5t-94 -51.5l158 -208l-25 -16l-166 217q-36 -6 -66 -6zM194 -50h60v-70q0 -58 -47 -75l-10 28q27 9 27 47v15h-30v55z" />
<glyph unicode="&#xf698;" horiz-adv-x="510" d="M52 380q0 75 55.5 117t137.5 45v-30q-73 -3 -118 -37t-45 -95q0 -25 13.5 -42.5t42.5 -28t52 -15.5t65 -11q103 -16 137 -31q66 -30 66 -96q0 -76 -54 -118t-139 -45v30q71 4 117 38.5t46 94.5q0 24 -13 41.5t-41.5 28t-46.5 14.5t-55 10l-18 3q-97 16 -129 30 q-73 30 -73 97zM57 105l28 13q41 -88 150 -95v-30q-131 6 -178 112zM171 632l151 109l18 -24l-151 -109zM275 512v30q62 -3 111 -32t68 -82l-27 -12q-19 44 -59.5 68.5t-92.5 27.5z" />
<glyph unicode="&#xf699;" horiz-adv-x="510" d="M52 380q0 75 55.5 117t137.5 45v-30q-73 -3 -118 -37t-45 -95q0 -25 13.5 -42.5t42.5 -28t52 -15.5t65 -11q103 -16 137 -31q66 -30 66 -96q0 -74 -50.5 -115t-132.5 -47l-4 -17q36 -7 36 -41q0 -25 -18 -37.5t-43 -12.5q-17 0 -32 6l10 28q9 -4 23 -4q30 0 30 20 q0 10 -32 10h-13l18 77q76 0 127 35t51 98q0 24 -13 41.5t-41.5 28t-46.5 14.5t-55 10l-18 3q-97 16 -129 30q-73 30 -73 97zM57 105l28 13q37 -83 135 -93l-7 -30q-113 13 -156 110zM275 512v30q62 -3 111 -32t68 -82l-27 -12q-19 44 -59.5 68.5t-92.5 27.5z" />
<glyph unicode="&#xf69a;" horiz-adv-x="510" d="M52 380q0 75 55.5 117t137.5 45v-30q-73 -3 -118 -37t-45 -95q0 -25 13.5 -42.5t42.5 -28t52 -15.5t65 -11q103 -16 137 -31q66 -30 66 -96q0 -76 -54 -118t-139 -45v30q71 4 117 38.5t46 94.5q0 24 -13 41.5t-41.5 28t-46.5 14.5t-55 10l-18 3q-97 16 -129 30 q-73 30 -73 97zM57 105l28 13q41 -88 150 -95v-30q-131 6 -178 112zM166 626l89 115l90 -115l-24 -18l-66 83l-65 -83zM275 512v30q62 -3 111 -32t68 -82l-27 -12q-19 44 -59.5 68.5t-92.5 27.5z" />
<glyph unicode="&#xf69b;" horiz-adv-x="510" d="M52 380q0 75 55.5 117t137.5 45v-30q-73 -3 -118 -37t-45 -95q0 -25 13.5 -42.5t42.5 -28t52 -15.5t65 -11q103 -16 137 -31q66 -30 66 -96q0 -76 -54 -118t-139 -45v30q71 4 117 38.5t46 94.5q0 24 -13 41.5t-41.5 28t-46.5 14.5t-55 10l-18 3q-97 16 -129 30 q-73 30 -73 97zM57 105l28 13q41 -88 150 -95v-30q-131 6 -178 112zM225 -50h60v-70q0 -58 -47 -75l-10 28q27 9 27 47v15h-30v55zM275 512v30q62 -3 111 -32t68 -82l-27 -12q-19 44 -59.5 68.5t-92.5 27.5z" />
<glyph unicode="&#xf69c;" horiz-adv-x="526" d="M50 506v30h426v-30h-426zM133 295v30h260v-30h-260zM248 0v265h30v-265h-30zM248 355v121h30v-121h-30z" />
<glyph unicode="&#xf69d;" horiz-adv-x="526" d="M50 506v30h426v-30h-426zM174 723l24 18l65 -83l66 83l24 -18l-90 -115zM248 0v476h30v-476h-30z" />
<glyph unicode="&#xf69e;" horiz-adv-x="526" d="M50 506v30h426v-30h-426zM233 -50h60v-70q0 -58 -47 -75l-10 28q27 9 27 47v15h-30v55zM248 0v476h30v-476h-30z" />
<glyph unicode="&#xf69f;" horiz-adv-x="538" d="M60 193v343h30v-343q0 -72 47 -120t117 -53v-30q-82 5 -138 61.5t-56 141.5zM169 720h30q0 -27 19 -43.5t51 -16.5t51 16.5t19 43.5h30q0 -38 -28 -64t-72 -26t-72 26t-28 64zM284 -10v30q70 5 117 53t47 120v343h30v-343q0 -85 -56 -141.5t-138 -61.5z" />
<glyph unicode="&#xf6a0;" horiz-adv-x="538" d="M60 193v343h30v-343q0 -72 47 -120t117 -53v-30q-82 5 -138 61.5t-56 141.5zM154 632l151 109l18 -24l-151 -109zM276 632l151 109l18 -24l-151 -109zM284 -10v30q70 5 117 53t47 120v343h30v-343q0 -85 -56 -141.5t-138 -61.5z" />
<glyph unicode="&#xf6a1;" horiz-adv-x="538" d="M60 193v343h30v-343q0 -72 47 -120t117 -53v-30q-82 5 -138 61.5t-56 141.5zM139 660v30h260v-30h-260zM284 -10v30q70 5 117 53t47 120v343h30v-343q0 -85 -56 -141.5t-138 -61.5z" />
<glyph unicode="&#xf6a2;" horiz-adv-x="538" d="M60 193v343h30v-343q0 -72 47 -120t117 -53v-30q-82 5 -138 61.5t-56 141.5zM221 -95q0 41 62 73l14 -26q-46 -24 -46 -47q0 -17 21 -17q14 0 30 11l16 -26q-24 -15 -46 -15q-23 0 -37 13t-14 34zM284 -10v30q70 5 117 53t47 120v343h30v-343q0 -85 -56 -141.5 t-138 -61.5z" />
<glyph unicode="&#xf6a3;" horiz-adv-x="538" d="M60 193v343h30v-343q0 -72 47 -120t117 -53v-30q-82 5 -138 61.5t-56 141.5zM202 675q0 24 14.5 42t37.5 23v-32q-22 -10 -22 -33q0 -24 22 -34v-31q-23 5 -37.5 23t-14.5 42zM284 -10v30q70 5 117 53t47 120v343h30v-343q0 -85 -56 -141.5t-138 -61.5zM284 610v31 q22 10 22 34q0 23 -22 33v32q22 -5 37 -23t15 -42t-15 -42t-37 -23z" />
<glyph unicode="&#xf6a4;" horiz-adv-x="538" d="M60 193v343h30v-343q0 -72 47 -120t117 -53v-30q-82 5 -138 61.5t-56 141.5zM151 661q25 47 70 47q29 0 57 -22q19 -15 38 -15q30 0 47 35l24 -18q-26 -47 -71 -47q-28 0 -56 21q-21 16 -39 16q-30 0 -46 -35zM284 -10v30q70 5 117 53t47 120v343h30v-343 q0 -85 -56 -141.5t-138 -61.5z" />
<glyph unicode="&#xf6a5;" horiz-adv-x="778" d="M50 531l28 10l201 -520l-16 -41zM279 103l78 202l16 -41l-78 -202zM302 531l28 10l59 -153l59 153l28 -10l-71 -184l126 -326l-16 -41zM305 632l151 109l18 -24l-151 -109zM531 103l169 438l28 -10l-181 -469z" />
<glyph unicode="&#xf6a6;" horiz-adv-x="778" d="M50 531l28 10l201 -520l-16 -41zM279 103l78 202l16 -41l-78 -202zM300 626l89 115l90 -115l-24 -18l-66 83l-65 -83zM302 531l28 10l59 -153l59 153l28 -10l-71 -184l126 -326l-16 -41zM531 103l169 438l28 -10l-181 -469z" />
<glyph unicode="&#xf6a7;" horiz-adv-x="778" d="M50 531l28 10l201 -520l-16 -41zM279 103l78 202l16 -41l-78 -202zM297 650v50h50v-50h-50zM302 531l28 10l59 -153l59 153l28 -10l-71 -184l126 -326l-16 -41zM432 650v50h50v-50h-50zM531 103l169 438l28 -10l-181 -469z" />
<glyph unicode="&#xf6a8;" horiz-adv-x="778" d="M50 531l28 10l201 -520l-16 -41zM279 103l78 202l16 -41l-78 -202zM302 531l28 10l59 -153l59 153l28 -10l-71 -184l126 -326l-16 -41zM305 717l18 24l151 -109l-18 -24zM531 103l169 438l28 -10l-181 -469z" />
<glyph unicode="&#xf6a9;" horiz-adv-x="553" d="M50 526l22 19l218 -271v-274h-30v263zM186 626l89 115l90 -115l-24 -18l-66 83l-65 -83zM294 316l187 231l22 -21l-190 -234z" />
<glyph unicode="&#xf6aa;" horiz-adv-x="553" d="M50 526l22 19l218 -271v-274h-30v263zM191 717l18 24l151 -109l-18 -24zM294 316l187 231l22 -21l-190 -234z" />
<glyph unicode="&#xf6ab;" horiz-adv-x="534" d="M46 0l403 536h39l-403 -536h-39zM50 506v30h361l-23 -30h-338zM123 0l23 30h338v-30h-361zM183 632l151 109l18 -24l-151 -109z" />
<glyph unicode="&#xf6ac;" horiz-adv-x="534" d="M46 0l403 536h39l-403 -536h-39zM50 506v30h361l-23 -30h-338zM123 0l23 30h338v-30h-361zM242 650v50h50v-50h-50z" />
<glyph unicode="&#xf6ad;" d="M60 650v50h50v-50h-50zM70 0v536h30v-536h-30z" />
<glyph unicode="&#xf6b4;" d="M55 640v60h60v-60h-60zM70 0v536h30v-536h-30z" />
<glyph unicode="&#xf6b5;" horiz-adv-x="502" d="M50 172q0 112 116 172q41 21 62 46t21 65v81h30v-81q0 -88 -96 -137q-35 -20 -52.5 -33.5t-34 -43t-16.5 -69.5q0 -71 54 -114t125 -43q116 0 166 99l27 -12q-58 -117 -192 -117q-82 0 -146 49.5t-64 137.5zM234 640v60h60v-60h-60z" />
<glyph unicode="&#xf6be;" d="M-122 -232l26 14q26 -45 72 -45q40 0 67 34.5t27 94.5v670h30v-670q0 -73 -35.5 -116t-88.5 -43q-64 0 -98 61z" />
<glyph unicode="&#xf6c3;" horiz-adv-x="180" d="M60 -50h60v-70q0 -58 -47 -75l-10 28q27 9 27 47v15h-30v55z" />
<glyph unicode="&#xf6f9;" horiz-adv-x="474" d="M-3 303l170 122l18 -24l-170 -122zM66 0v279l30 21v-300h-30zM66 390v146h30v-125zM126 0v30h298v-30h-298z" />
<glyph unicode="&#xf6fa;" horiz-adv-x="1030" d="M50 268q0 113 77.5 194.5t189.5 87.5v-30q-99 -5 -168 -78t-69 -174t69 -174t168 -79v-29q-112 6 -189.5 87.5t-77.5 194.5zM347 -14v29q99 6 168 79t69 174t-69 174t-168 78v30q76 -4 139.5 -46t97.5 -109v141h396v-30h-366v-182h300v-30h-300v-264h366v-30h-396v141 q-34 -68 -97.5 -109.5t-139.5 -45.5z" />
<glyph unicode="&#xf6fd;" horiz-adv-x="510" d="M52 380q0 75 55.5 117t137.5 45v-30q-73 -3 -118 -37t-45 -95q0 -25 13.5 -42.5t42.5 -28t52 -15.5t65 -11q103 -16 137 -31q66 -30 66 -96q0 -76 -54 -118t-139 -45v30q71 4 117 38.5t46 94.5q0 24 -13 41.5t-41.5 28t-46.5 14.5t-55 10l-18 3q-97 16 -129 30 q-73 30 -73 97zM57 105l28 13q41 -88 150 -95v-30q-131 6 -178 112zM166 723l24 18l65 -83l66 83l24 -18l-90 -115zM275 512v30q62 -3 111 -32t68 -82l-27 -12q-19 44 -59.5 68.5t-92.5 27.5z" />
<glyph unicode="&#xf6ff;" horiz-adv-x="534" d="M46 0l403 536h39l-403 -536h-39zM50 506v30h361l-23 -30h-338zM123 0l23 30h338v-30h-361zM178 723l24 18l65 -83l66 83l24 -18l-90 -115z" />
<glyph unicode="&#xf721;" d="M55 0v60h60v-60h-60zM70 164v372h30v-372h-30z" />
<glyph unicode="&#xf726;" horiz-adv-x="451" d="M55 153q0 46 34 85t98 58q-79 36 -79 113q0 53 45 92.5t125 39.5q12 0 36 -2l-2 -30q-24 2 -34 2q-66 0 -103 -30.5t-37 -71.5q0 -40 35.5 -69.5t97.5 -29.5h22v-30h-11q-91 0 -144 -39.5t-53 -87.5q0 -51 54 -88t152 -37h2v-30h-2q-112 0 -174 46t-62 109zM323 -1v358 h30v-47h48v-30h-48v-279q-20 -2 -30 -2z" />
<glyph unicode="&#xf73f;" horiz-adv-x="387" d="M50 468q41 83 137 83q59 0 104.5 -36t45.5 -98q0 -45 -21 -72.5t-63 -50.5q-54 -30 -54 -74v-56h-30v56q0 60 70 100q33 19 50.5 40.5t17.5 56.5q0 48 -36.5 76t-83.5 28q-78 0 -111 -67zM154 0v60h60v-60h-60z" />
<glyph unicode="&#xf761;" horiz-adv-x="514" d="M50 6l175 466l16 -42l-164 -437zM153 109l11 30h218l-141 375l16 43l207 -551l-27 -13l-44 116h-240z" />
<glyph unicode="&#xf762;" horiz-adv-x="414" d="M66 0v536q3 0 13.5 1.5t16.5 1.5v-543q-12 0 -30 4zM126 -5v30h6q77 0 139.5 34.5t62.5 88.5q0 29 -19.5 57t-53.5 45q-52 26 -135 28v29q51 1 90.5 28.5t39.5 71.5t-37.5 71.5t-92.5 30.5v31q63 -3 111.5 -37t48.5 -96q0 -35 -21 -64.5t-53 -44.5q67 -14 109.5 -55 t42.5 -93q0 -71 -69.5 -112.5t-168.5 -42.5z" />
<glyph unicode="&#xf763;" horiz-adv-x="503" d="M50 268q0 112 89.5 194t249.5 82q31 0 64 -3l-2 -30q-33 3 -62 3q-146 0 -227.5 -73.5t-81.5 -172.5t81.5 -172t227.5 -73q29 0 62 3l2 -30q-33 -3 -64 -3q-160 0 -249.5 81.5t-89.5 193.5z" />
<glyph unicode="&#xf764;" horiz-adv-x="532" d="M66 0v540q20 2 30 2v-544q-12 0 -30 2zM126 -3v30h17q146 0 227.5 72t81.5 171t-81.5 171.5t-227.5 72.5h-17v30h17q160 0 249.5 -81t89.5 -193q0 -111 -89.5 -192t-249.5 -81h-17z" />
<glyph unicode="&#xf765;" horiz-adv-x="517" d="M66 0v536h30v-536h-30zM126 0v30h336v-30h-336zM126 294v30h270v-30h-270zM126 506v30h336v-30h-336z" />
<glyph unicode="&#xf766;" horiz-adv-x="512" d="M66 0v536h30v-536h-30zM126 294v30h270v-30h-270zM126 506v30h336v-30h-336z" />
<glyph unicode="&#xf767;" horiz-adv-x="513" d="M50 270q0 112 89 193t250 81q31 0 64 -3v-30q-30 3 -64 3q-147 0 -228 -72.5t-81 -171.5t81.5 -171t227.5 -72h4v-30h-4q-160 0 -249.5 81t-89.5 192zM423 -2v228h30v-226q-20 -2 -30 -2z" />
<glyph unicode="&#xf768;" horiz-adv-x="528" d="M66 0v536h30v-536h-30zM126 294v30h306v212h30v-536h-30v294h-306z" />
<glyph unicode="&#xf769;" d="M70 0v536h30v-536h-30z" />
<glyph unicode="&#xf76a;" horiz-adv-x="453" d="M45 58l21 23q66 -61 127 -61q60 0 102.5 38.5t57.5 95.5q10 36 10 78v304h30v-313q0 -99 -56.5 -166t-143.5 -67q-80 0 -148 68z" />
<glyph unicode="&#xf76b;" horiz-adv-x="570" d="M66 0v536h30v-536h-30zM126 232v38l376 277l18 -24zM186 238l24 19l310 -244l-18 -24z" />
<glyph unicode="&#xf76c;" horiz-adv-x="474" d="M66 0v536h30v-536h-30zM126 0v30h298v-30h-298z" />
<glyph unicode="&#xf76d;" horiz-adv-x="648" d="M66 0v434l30 -56v-378h-30zM66 497v63l258 -483l198 370v-63l-198 -371zM552 0v503l30 57v-560h-30z" />
<glyph unicode="&#xf76e;" horiz-adv-x="549" d="M66 0v464l30 -39v-425h-30zM66 511v48l417 -534v-48zM453 111v425h30v-464z" />
<glyph unicode="&#xf76f;" horiz-adv-x="656" d="M50 268q0 111 76.5 191t186.5 86v-30q-98 -6 -165.5 -77t-67.5 -170t67.5 -170.5t165.5 -77.5v-29q-110 6 -186.5 86t-76.5 191zM343 -9v29q98 6 165.5 77.5t67.5 170.5t-67.5 170t-165.5 77v30q110 -6 186.5 -86t76.5 -191t-76.5 -191t-186.5 -86z" />
<glyph unicode="&#xf770;" horiz-adv-x="412" d="M66 0v537q16 2 30 2v-539h-30zM126 204v30q85 2 145.5 36.5t60.5 100.5q0 58 -53 98t-153 41v30q111 -1 173.5 -49t62.5 -120t-62.5 -119t-173.5 -48z" />
<glyph unicode="&#xf771;" horiz-adv-x="656" d="M50 268q0 111 76.5 191t186.5 86v-30q-98 -6 -165.5 -77t-67.5 -170t67.5 -170.5t165.5 -77.5v-29q-110 6 -186.5 86t-76.5 191zM343 -9v29q82 4 147 60l-66 66l22 20l65 -65q65 71 65 167q0 99 -67.5 170t-165.5 77v30q110 -6 186.5 -86t76.5 -191q0 -109 -74 -188 l69 -69q-16 -14 -22 -20l-68 68q-73 -64 -168 -68z" />
<glyph unicode="&#xf772;" horiz-adv-x="428" d="M66 0v537q16 2 30 2v-539h-30zM126 204v30q85 2 145.5 36.5t60.5 100.5q0 58 -53 98t-153 41v30q111 -1 173.5 -49t62.5 -120q0 -64 -43 -102.5t-94 -51.5l158 -208l-25 -16l-166 217q-36 -6 -66 -6z" />
<glyph unicode="&#xf774;" horiz-adv-x="526" d="M50 506v30h426v-30h-426zM248 0v476h30v-476h-30z" />
<glyph unicode="&#xf775;" horiz-adv-x="538" d="M60 193v343h30v-343q0 -72 47 -120t117 -53v-30q-82 5 -138 61.5t-56 141.5zM284 -10v30q70 5 117 53t47 120v343h30v-343q0 -85 -56 -141.5t-138 -61.5z" />
<glyph unicode="&#xf776;" horiz-adv-x="526" d="M50 531l28 10l201 -520l-16 -41zM279 103l169 438l28 -10l-181 -469z" />
<glyph unicode="&#xf777;" horiz-adv-x="778" d="M50 531l28 10l201 -520l-16 -41zM279 103l78 202l16 -41l-78 -202zM302 531l28 10l59 -153l59 153l28 -10l-71 -184l126 -326l-16 -41zM531 103l169 438l28 -10l-181 -469z" />
<glyph unicode="&#xf778;" horiz-adv-x="554" d="M50 9l430 536l24 -18l-430 -536zM50 527l24 18l184 -229l-19 -24zM296 220l19 24l189 -235l-24 -18z" />
<glyph unicode="&#xf779;" horiz-adv-x="553" d="M50 526l22 19l218 -271v-274h-30v263zM294 316l187 231l22 -21l-190 -234z" />
<glyph unicode="&#xf77a;" horiz-adv-x="534" d="M46 0l403 536h39l-403 -536h-39zM50 506v30h361l-23 -30h-338zM123 0l23 30h338v-30h-361z" />
<glyph unicode="&#xf7a1;" d="M55 476v60h60v-60h-60zM70 0v372h30v-372h-30z" />
<glyph unicode="&#xf7bf;" horiz-adv-x="387" d="M49 119q0 45 21 72.5t63 50.5q54 30 54 74v56h30v-56q0 -60 -70 -100q-33 -19 -50.5 -40.5t-17.5 -56.5q0 -48 36.5 -76t83.5 -28q78 0 111 67l26 -14q-41 -83 -137 -83q-59 0 -104.5 36t-45.5 98zM172 476v60h60v-60h-60z" />
<glyph unicode="&#xf7e0;" horiz-adv-x="514" d="M63 6l175 466l16 -42l-164 -437zM166 109l11 30h218l-141 375l16 43l207 -551l-27 -13l-44 116h-240zM186 717l18 24l151 -109l-18 -24z" />
<glyph unicode="&#xf7e1;" horiz-adv-x="514" d="M63 6l175 466l16 -42l-164 -437zM166 109l11 30h218l-141 375l16 43l207 -551l-27 -13l-44 116h-240zM192 632l151 109l18 -24l-151 -109z" />
<glyph unicode="&#xf7e2;" horiz-adv-x="514" d="M63 6l175 466l16 -42l-164 -437zM166 109l11 30h218l-141 375l16 43l207 -551l-27 -13l-44 116h-240zM181 626l89 115l90 -115l-24 -18l-66 83l-65 -83z" />
<glyph unicode="&#xf7e3;" horiz-adv-x="514" d="M63 6l175 466l16 -42l-164 -437zM152 661q25 47 70 47q29 0 57 -22q19 -15 38 -15q30 0 47 35l24 -18q-26 -47 -71 -47q-27 0 -56 21q-21 16 -39 16q-30 0 -46 -35zM166 109l11 30h218l-141 375l16 43l207 -551l-27 -13l-44 116h-240z" />
<glyph unicode="&#xf7e4;" horiz-adv-x="514" d="M63 6l175 466l16 -42l-164 -437zM166 109l11 30h218l-141 375l16 43l207 -551l-27 -13l-44 116h-240zM178 650v50h50v-50h-50zM313 650v50h50v-50h-50z" />
<glyph unicode="&#xf7e5;" horiz-adv-x="514" d="M63 6l175 466l16 -42l-164 -437zM166 109l11 30h218l-141 375l16 43l207 -551l-27 -13l-44 116h-240zM203 675q0 24 14.5 42t37.5 23v-32q-22 -10 -22 -33q0 -24 22 -34v-31q-23 5 -37.5 23t-14.5 42zM285 610v31q22 10 22 34q0 23 -22 33v32q22 -5 37 -23t15 -42 t-15 -42t-37 -23z" />
<glyph unicode="&#xf7e6;" horiz-adv-x="748" d="M50 8l347 528h296v-30h-279l-226 -345h179v-30h-199l-92 -139zM397 0v424l30 45v-145h200v-30h-200v-264h266v-30h-296z" />
<glyph unicode="&#xf7e7;" horiz-adv-x="503" d="M50 270q0 112 89.5 193t249.5 81q31 0 64 -3l-2 -30q-33 3 -62 3q-146 0 -227.5 -72.5t-81.5 -171.5t81.5 -171t227.5 -72q29 0 62 3l2 -30q-33 -3 -64 -3q-34 0 -72 5l-5 -18q36 -7 36 -41q0 -25 -18 -37.5t-43 -12.5q-17 0 -32 6l10 28q9 -4 23 -4q30 0 30 20 q0 10 -32 10h-13l14 54q-114 24 -175.5 97.5t-61.5 165.5z" />
<glyph unicode="&#xf7e8;" horiz-adv-x="517" d="M66 0v536h30v-536h-30zM126 0v30h336v-30h-336zM126 294v30h270v-30h-270zM126 506v30h336v-30h-336zM180 717l18 24l151 -109l-18 -24z" />
<glyph unicode="&#xf7e9;" horiz-adv-x="517" d="M66 0v536h30v-536h-30zM126 0v30h336v-30h-336zM126 294v30h270v-30h-270zM126 506v30h336v-30h-336zM180 632l151 109l18 -24l-151 -109z" />
<glyph unicode="&#xf7ea;" horiz-adv-x="517" d="M66 0v536h30v-536h-30zM126 0v30h336v-30h-336zM126 294v30h270v-30h-270zM126 506v30h336v-30h-336zM175 626l89 115l90 -115l-24 -18l-66 83l-65 -83z" />
<glyph unicode="&#xf7eb;" horiz-adv-x="517" d="M66 0v536h30v-536h-30zM126 0v30h336v-30h-336zM126 294v30h270v-30h-270zM126 506v30h336v-30h-336zM172 650v50h50v-50h-50zM307 650v50h50v-50h-50z" />
<glyph unicode="&#xf7ec;" d="M1 717l18 24l151 -109l-18 -24zM70 0v536h30v-536h-30z" />
<glyph unicode="&#xf7ed;" d="M16 632l151 109l18 -24l-151 -109zM70 0v536h30v-536h-30z" />
<glyph unicode="&#xf7ee;" d="M-4 626l89 115l90 -115l-24 -18l-66 83l-65 -83zM70 0v536h30v-536h-30z" />
<glyph unicode="&#xf7ef;" d="M-7 650v50h50v-50h-50zM70 0v536h30v-536h-30zM128 650v50h50v-50h-50z" />
<glyph unicode="&#xf7f1;" horiz-adv-x="549" d="M66 0v464l30 -39v-425h-30zM66 511v48l417 -534v-48zM156 661q25 47 70 47q29 0 57 -22q20 -15 38 -15q30 0 47 35l24 -18q-26 -47 -71 -47q-27 0 -56 21q-21 16 -39 16q-30 0 -46 -35zM453 111v425h30v-464z" />
<glyph unicode="&#xf7f2;" horiz-adv-x="656" d="M50 268q0 111 76.5 191t186.5 86v-30q-98 -6 -165.5 -77t-67.5 -170t67.5 -170.5t165.5 -77.5v-29q-110 6 -186.5 86t-76.5 191zM244 717l18 24l151 -109l-18 -24zM343 -9v29q98 6 165.5 77.5t67.5 170.5t-67.5 170t-165.5 77v30q110 -6 186.5 -86t76.5 -191t-76.5 -191 t-186.5 -86z" />
<glyph unicode="&#xf7f3;" horiz-adv-x="656" d="M50 268q0 111 76.5 191t186.5 86v-30q-98 -6 -165.5 -77t-67.5 -170t67.5 -170.5t165.5 -77.5v-29q-110 6 -186.5 86t-76.5 191zM244 632l151 109l18 -24l-151 -109zM343 -9v29q98 6 165.5 77.5t67.5 170.5t-67.5 170t-165.5 77v30q110 -6 186.5 -86t76.5 -191 t-76.5 -191t-186.5 -86z" />
<glyph unicode="&#xf7f4;" horiz-adv-x="656" d="M50 268q0 111 76.5 191t186.5 86v-30q-98 -6 -165.5 -77t-67.5 -170t67.5 -170.5t165.5 -77.5v-29q-110 6 -186.5 86t-76.5 191zM239 626l89 115l90 -115l-24 -18l-66 83l-65 -83zM343 -9v29q98 6 165.5 77.5t67.5 170.5t-67.5 170t-165.5 77v30q110 -6 186.5 -86 t76.5 -191t-76.5 -191t-186.5 -86z" />
<glyph unicode="&#xf7f5;" horiz-adv-x="656" d="M50 268q0 111 76.5 191t186.5 86v-30q-98 -6 -165.5 -77t-67.5 -170t67.5 -170.5t165.5 -77.5v-29q-110 6 -186.5 86t-76.5 191zM210 661q25 47 70 47q29 0 57 -22q20 -15 38 -15q30 0 47 35l24 -18q-26 -47 -71 -47q-27 0 -56 21q-21 16 -39 16q-30 0 -46 -35zM343 -9 v29q98 6 165.5 77.5t67.5 170.5t-67.5 170t-165.5 77v30q110 -6 186.5 -86t76.5 -191t-76.5 -191t-186.5 -86z" />
<glyph unicode="&#xf7f6;" horiz-adv-x="656" d="M50 268q0 111 76.5 191t186.5 86v-30q-98 -6 -165.5 -77t-67.5 -170t67.5 -170.5t165.5 -77.5v-29q-110 6 -186.5 86t-76.5 191zM236 650v50h50v-50h-50zM343 -9v29q98 6 165.5 77.5t67.5 170.5t-67.5 170t-165.5 77v30q110 -6 186.5 -86t76.5 -191t-76.5 -191 t-186.5 -86zM371 650v50h50v-50h-50z" />
<glyph unicode="&#xf7f8;" horiz-adv-x="656" d="M50 11l71 71q-71 81 -71 186q0 111 76.5 191t186.5 86v-30q-98 -6 -165.5 -77t-67.5 -170q0 -95 62 -165l350 351q-64 57 -149 61v30q95 -4 169 -70l72 72l22 -22l-72 -72q72 -78 72 -185q0 -111 -76.5 -191t-186.5 -86v29q98 6 165.5 77.5t67.5 170.5q0 92 -62 164 l-350 -351q63 -55 149 -61v-29q-99 5 -170 69l-71 -71z" />
<glyph unicode="&#xf7f9;" horiz-adv-x="538" d="M60 193v343h30v-343q0 -72 47 -120t117 -53v-30q-82 5 -138 61.5t-56 141.5zM185 717l18 24l151 -109l-18 -24zM284 -10v30q70 5 117 53t47 120v343h30v-343q0 -85 -56 -141.5t-138 -61.5z" />
<glyph unicode="&#xf7fa;" horiz-adv-x="538" d="M60 193v343h30v-343q0 -72 47 -120t117 -53v-30q-82 5 -138 61.5t-56 141.5zM185 632l151 109l18 -24l-151 -109zM284 -10v30q70 5 117 53t47 120v343h30v-343q0 -85 -56 -141.5t-138 -61.5z" />
<glyph unicode="&#xf7fb;" horiz-adv-x="538" d="M60 193v343h30v-343q0 -72 47 -120t117 -53v-30q-82 5 -138 61.5t-56 141.5zM180 626l89 115l90 -115l-24 -18l-66 83l-65 -83zM284 -10v30q70 5 117 53t47 120v343h30v-343q0 -85 -56 -141.5t-138 -61.5z" />
<glyph unicode="&#xf7fc;" horiz-adv-x="538" d="M60 193v343h30v-343q0 -72 47 -120t117 -53v-30q-82 5 -138 61.5t-56 141.5zM177 650v50h50v-50h-50zM284 -10v30q70 5 117 53t47 120v343h30v-343q0 -85 -56 -141.5t-138 -61.5zM312 650v50h50v-50h-50z" />
<glyph unicode="&#xf7fd;" horiz-adv-x="553" d="M50 526l22 19l218 -271v-274h-30v263zM191 632l151 109l18 -24l-151 -109zM294 316l187 231l22 -21l-190 -234z" />
<glyph unicode="&#xf7fe;" horiz-adv-x="392" d="M66 0v536h30v-536h-30zM126 101v30h6q85 0 132.5 41t47.5 97t-47.5 97t-133.5 41h-5v30h5q100 0 155.5 -49.5t55.5 -118.5q0 -68 -55.5 -118t-154.5 -50h-6z" />
<glyph unicode="&#xf7ff;" horiz-adv-x="553" d="M50 526l22 19l218 -271v-274h-30v263zM183 650v50h50v-50h-50zM294 316l187 231l22 -21l-190 -234zM318 650v50h50v-50h-50z" />
<glyph horiz-adv-x="518" d="M55 350q0 68 21.5 130.5t62.5 113t107.5 80.5t148.5 30q40 0 73 -3l-2 -30q-33 3 -71 3q-75 0 -135.5 -27.5t-97.5 -74t-57 -103.5t-20 -119t20 -119t57 -103t97 -73.5t135 -27.5q39 0 72 3l2 -30q-33 -3 -74 -3q-82 0 -148 30t-107 80.5t-62.5 112.5t-21.5 130zM115 350 q0 10 1 15h263v-30h-263q-1 5 -1 15z" />
<glyph horiz-adv-x="503" d="M50 268q0 112 89.5 194t249.5 82q31 0 64 -3l-2 -30q-33 3 -62 3q-146 0 -227.5 -73.5t-81.5 -172.5t81.5 -172t227.5 -73q29 0 62 3l2 -30q-33 -3 -64 -3q-160 0 -249.5 81.5t-89.5 193.5zM111 268q0 10 1 15h263v-30h-263q-1 5 -1 15z" />
<glyph horiz-adv-x="510" d="M52 380q0 75 55.5 117t137.5 45v-30q-73 -3 -118 -37t-45 -95q0 -25 13.5 -42.5t42.5 -28t52 -15.5t65 -11q103 -16 137 -31q66 -30 66 -96q0 -76 -54 -118t-139 -45v30q71 4 117 38.5t46 94.5q0 24 -13 41.5t-41.5 28t-46.5 14.5t-55 10l-18 3q-97 16 -129 30 q-73 30 -73 97zM57 105l28 13q41 -88 150 -95v-30q-131 6 -178 112zM275 512v30q62 -3 111 -32t68 -82l-27 -12q-19 44 -59.5 68.5t-92.5 27.5z" />
<glyph horiz-adv-x="412" d="M50 213q0 73 48.5 129.5t133.5 76.5v92h30v-86q34 4 54 4q13 0 41 -2l-2 -30q-28 2 -39 2q-107 0 -171.5 -54t-64.5 -132t64.5 -132t171.5 -54q11 0 39 2l2 -30q-28 -2 -41 -2q-20 0 -54 4v-86h-30v91q-85 21 -133.5 77.5t-48.5 129.5z" />
<glyph horiz-adv-x="400" d="M70 625v30h260v-30h-260z" />
<glyph horiz-adv-x="562" d="M50 278q0 67 23 121t59.5 84.5t76 46.5t76.5 16q112 0 169.5 -77.5t57.5 -190.5v-15h-402q-2 15 0 30h371q-3 95 -52.5 159t-143.5 64q-33 0 -67 -14t-66 -41.5t-52 -75.5t-20 -107q0 -109 58 -183.5t157 -74.5q79 0 138 50l20 -22q-67 -58 -158 -58q-113 0 -179 83 t-66 205z" />
<glyph horiz-adv-x="555" d="M21 506v30h45v115q0 95 42.5 149t107.5 54q50 0 87.5 -34t47.5 -80h-31q-10 35 -38 59.5t-66 24.5q-52 0 -86 -46t-34 -127v-944h-30v799h-45zM126 506v30h128v-30h-128zM280 506v30h45v174h30v-522q0 -78 42.5 -118.5t110.5 -40.5q14 0 23 1l4 -30q-9 -1 -27 -1 q-81 0 -132 48t-51 141v318h-45zM385 506v30h128v-30h-128z" />
<glyph d="M-248 -225l21 23q65 -60 127 -60q79 0 124.5 61.5t45.5 149.5v587h30v-596q0 -99 -56.5 -166t-143.5 -67q-80 0 -148 68zM60 651v49h50v-49h-50z" />
<glyph horiz-adv-x="826" d="M60 0v344q0 90 49 142.5t120 58.5v-30q-58 -6 -98.5 -51t-40.5 -120v-344h-30zM259 515v30q50 -4 92 -34t62 -81q20 51 62 81t92 34v-30q-58 -6 -98.5 -51t-40.5 -120v-344h-30v344q0 75 -40.5 120t-98.5 51zM597 515v30q70 -6 119.5 -59t49.5 -142v-344h-30v344 q0 75 -40.5 120t-98.5 51z" />
<glyph horiz-adv-x="538" d="M60 0v343q0 84 56 140.5t138 61.5v-30q-70 -5 -117 -53t-47 -119v-343h-30zM284 515v30q82 -5 138 -61.5t56 -140.5v-343h-30v343q0 71 -47 119t-117 53z" />
<glyph horiz-adv-x="304" d="M60 0v348q0 89 61 146t148 57v-30q-75 0 -127 -48.5t-52 -124.5v-348h-30z" />
<glyph horiz-adv-x="850" d="M60 350q0 147 102 252.5t248 111.5v-30q-134 -6 -227 -102.5t-93 -231.5t93 -232t227 -103v-29q-146 6 -248 111.5t-102 252.5zM326 160v386h30v-386h-30zM386 300v30q60 4 94.5 31t34.5 62t-34.5 62t-94.5 31v30q77 -6 118 -41t41 -82q0 -35 -25.5 -66t-70.5 -46 l109 -142l-24 -18l-116 152q-15 -3 -32 -3zM440 -14v29q134 6 227 103t93 232t-93 231.5t-227 102.5v30q146 -6 248 -111.5t102 -252.5t-102 -252.5t-248 -111.5z" />
<glyph horiz-adv-x="484" d="M50 380h31q5 -42 39 -69.5t80 -27.5h84q58 0 101 -36.5t48 -91.5h-30q-5 42 -39.5 70t-79.5 28h-84q-58 0 -101 36t-49 91zM50 410q6 54 49 90t101 36h194v-30h-194q-46 0 -80 -27t-39 -69h-31zM90 0v30h194q45 0 79 26.5t40 68.5h30q-7 -54 -49.5 -89.5t-99.5 -35.5 h-194z" />
<glyph horiz-adv-x="453" d="M21 252v30h180v-30h-180zM33 30q30 7 54 39t24 80q0 19 -8 73h31q7 -44 7 -73q0 -45 -18 -79q7 1 15 1q42 0 95 -25q52 -23 83 -23q47 0 82 34l20 -22q-45 -42 -102 -42q-34 0 -91 24t-87 24q-18 0 -52 -21q-29 -17 -48 -20zM81 383q0 68 47 110.5t133 42.5v-30 q-74 0 -112 -34t-38 -89q0 -33 6 -71h-30q-6 36 -6 71z" />
<glyph horiz-adv-x="452" d="M21 506v30h45v173h30v-521q0 -77 41.5 -125t115.5 -48q86 0 155 61l18 -24q-75 -67 -170 -67q-89 0 -139.5 57.5t-50.5 147.5v316h-45zM126 506v30h127v-30h-127z" />
<glyph horiz-adv-x="826" d="M60 192v344h30v-344q0 -76 40.5 -120.5t98.5 -50.5v-30q-70 6 -119.5 58.5t-49.5 142.5zM259 -9v30q58 6 98.5 50.5t40.5 120.5v344h30v-344q0 -76 40.5 -120.5t98.5 -50.5v-30q-50 4 -92 33.5t-62 81.5q-20 -52 -62 -81.5t-92 -33.5zM597 -9v30q58 6 98.5 50.5 t40.5 120.5v344h30v-344q0 -90 -49.5 -142.5t-119.5 -58.5z" />
</font>
</defs>
</svg>
